<svg id="visual" viewBox="0 0 675 900" width="675" height="900" xmlns="http://www.w3.org/2000/svg" xmlns:xlink="http://www.w3.org/1999/xlink" version="1.1"><g stroke-width="1" stroke-linejoin="bevel"><path d="M343 432.3L345 420.7L329.3 421.7Z" fill="#2b3335" stroke="#2b3335"></path><path d="M321.5 381.7L310.3 416.7L329.3 421.7Z" fill="#2d3538" stroke="#2d3538"></path><path d="M329.3 421.7L332.3 486.3L343 432.3Z" fill="#2c3436" stroke="#2c3436"></path><path d="M345 420.7L321.5 381.7L329.3 421.7Z" fill="#31393c" stroke="#31393c"></path><path d="M343 432.3L389.5 416.7L345 420.7Z" fill="#262d2f" stroke="#262d2f"></path><path d="M345 420.7L347 369.7L321.5 381.7Z" fill="#2d3538" stroke="#2d3538"></path><path d="M369.8 373.3L347 369.7L345 420.7Z" fill="#30383b" stroke="#30383b"></path><path d="M347 369.7L325 367.7L321.5 381.7Z" fill="#2f3739" stroke="#2f3739"></path><path d="M292.8 378.3L276 433L310.3 416.7Z" fill="#272e30" stroke="#272e30"></path><path d="M310.3 416.7L332.3 486.3L329.3 421.7Z" fill="#293133" stroke="#293133"></path><path d="M343 432.3L425.3 467L389.5 416.7Z" fill="#2a3234" stroke="#2a3234"></path><path d="M389.5 416.7L369.8 373.3L345 420.7Z" fill="#262d2f" stroke="#262d2f"></path><path d="M292.8 378.3L310.3 416.7L321.5 381.7Z" fill="#2b3335" stroke="#2b3335"></path><path d="M310.3 416.7L276 433L332.3 486.3Z" fill="#2c3436" stroke="#2c3436"></path><path d="M301 371.3L292.8 378.3L321.5 381.7Z" fill="#262d2f" stroke="#262d2f"></path><path d="M325 367.7L301 371.3L321.5 381.7Z" fill="#2f3739" stroke="#2f3739"></path><path d="M347 369.7L324.8 359.7L325 367.7Z" fill="#31393c" stroke="#31393c"></path><path d="M325 367.7L324.8 359.7L301 371.3Z" fill="#31393c" stroke="#31393c"></path><path d="M348 348.3L324.8 359.7L347 369.7Z" fill="#2b3335" stroke="#2b3335"></path><path d="M271.8 353L289.3 376.3L301 371.3Z" fill="#2f3739" stroke="#2f3739"></path><path d="M301 371.3L289.3 376.3L292.8 378.3Z" fill="#2a3234" stroke="#2a3234"></path><path d="M292.8 378.3L255.5 423L276 433Z" fill="#2d3538" stroke="#2d3538"></path><path d="M256.3 447L267 451.3L276 433Z" fill="#282f31" stroke="#282f31"></path><path d="M276 433L267 451.3L332.3 486.3Z" fill="#2f3739" stroke="#2f3739"></path><path d="M369.8 373.3L348 348.3L347 369.7Z" fill="#262d2f" stroke="#262d2f"></path><path d="M280 335L271.8 353L301 371.3Z" fill="#2f3739" stroke="#2f3739"></path><path d="M289.3 376.3L255.5 423L292.8 378.3Z" fill="#2f3739" stroke="#2f3739"></path><path d="M255.5 423L256.3 447L276 433Z" fill="#2c3436" stroke="#2c3436"></path><path d="M266.8 493.3L326.5 513L332.3 486.3Z" fill="#2f3739" stroke="#2f3739"></path><path d="M389.5 416.7L403.3 371.3L369.8 373.3Z" fill="#2a3234" stroke="#2a3234"></path><path d="M369.8 373.3L370.8 339.3L348 348.3Z" fill="#262d2f" stroke="#262d2f"></path><path d="M389.5 416.7L412.5 383L403.3 371.3Z" fill="#2f3739" stroke="#2f3739"></path><path d="M412.5 383L409.5 377.3L403.3 371.3Z" fill="#272e30" stroke="#272e30"></path><path d="M389.5 416.7L420.3 398L412.5 383Z" fill="#2b3335" stroke="#2b3335"></path><path d="M449.8 445L420.3 398L389.5 416.7Z" fill="#31393c" stroke="#31393c"></path><path d="M266.8 493.3L332.3 486.3L267 451.3Z" fill="#282f31" stroke="#282f31"></path><path d="M421.8 482L425.3 467L343 432.3Z" fill="#2c3436" stroke="#2c3436"></path><path d="M403.3 371.3L370.8 339.3L369.8 373.3Z" fill="#272e30" stroke="#272e30"></path><path d="M414.5 322.7L370.8 339.3L403.3 371.3Z" fill="#262d2f" stroke="#262d2f"></path><path d="M341 325L331.8 333L348 348.3Z" fill="#31393c" stroke="#31393c"></path><path d="M348 348.3L331.8 333L324.8 359.7Z" fill="#2f3739" stroke="#2f3739"></path><path d="M271.8 353L246.8 403L289.3 376.3Z" fill="#272e30" stroke="#272e30"></path><path d="M289.3 376.3L246.8 403L255.5 423Z" fill="#2a3234" stroke="#2a3234"></path><path d="M255.5 423L206.3 456.3L256.3 447Z" fill="#262d2f" stroke="#262d2f"></path><path d="M421.8 482L343 432.3L332.3 486.3Z" fill="#31393c" stroke="#31393c"></path><path d="M280 335L301 371.3L324.8 359.7Z" fill="#2c3436" stroke="#2c3436"></path><path d="M253.8 487L266.8 493.3L267 451.3Z" fill="#293133" stroke="#293133"></path><path d="M341 325L326.3 325.7L331.8 333Z" fill="#262d2f" stroke="#262d2f"></path><path d="M331.8 333L326.3 325.7L324.8 359.7Z" fill="#2b3335" stroke="#2b3335"></path><path d="M370.8 339.3L341 325L348 348.3Z" fill="#30383b" stroke="#30383b"></path><path d="M383.8 521.3L421.8 482L332.3 486.3Z" fill="#282f31" stroke="#282f31"></path><path d="M266.8 493.3L320.3 525.7L326.5 513Z" fill="#262d2f" stroke="#262d2f"></path><path d="M326.5 513L383.8 521.3L332.3 486.3Z" fill="#2d3538" stroke="#2d3538"></path><path d="M236.3 488.7L253.8 487L256.3 447Z" fill="#31393c" stroke="#31393c"></path><path d="M256.3 447L253.8 487L267 451.3Z" fill="#262d2f" stroke="#262d2f"></path><path d="M285.5 537L323.8 537.7L320.3 525.7Z" fill="#31393c" stroke="#31393c"></path><path d="M340 543L383.8 521.3L326.5 513Z" fill="#282f31" stroke="#282f31"></path><path d="M299.3 318.3L280 335L324.8 359.7Z" fill="#2c3436" stroke="#2c3436"></path><path d="M271.8 353L223.5 366L246.8 403Z" fill="#262d2f" stroke="#262d2f"></path><path d="M412.5 383L427.5 358.3L409.5 377.3Z" fill="#262d2f" stroke="#262d2f"></path><path d="M409.5 377.3L427.5 358.3L403.3 371.3Z" fill="#2c3436" stroke="#2c3436"></path><path d="M373 306L325.3 305.3L341 325Z" fill="#2d3538" stroke="#2d3538"></path><path d="M420.3 398L427.5 358.3L412.5 383Z" fill="#272e30" stroke="#272e30"></path><path d="M443.5 353L427.5 358.3L420.3 398Z" fill="#293133" stroke="#293133"></path><path d="M285.5 537L320.3 525.7L266.8 493.3Z" fill="#2c3436" stroke="#2c3436"></path><path d="M320.3 525.7L340 543L326.5 513Z" fill="#2c3436" stroke="#2c3436"></path><path d="M325.3 305.3L299.3 318.3L326.3 325.7Z" fill="#262d2f" stroke="#262d2f"></path><path d="M326.3 325.7L299.3 318.3L324.8 359.7Z" fill="#2d3538" stroke="#2d3538"></path><path d="M450.3 471.7L449.8 445L425.3 467Z" fill="#282f31" stroke="#282f31"></path><path d="M425.3 467L449.8 445L389.5 416.7Z" fill="#282f31" stroke="#282f31"></path><path d="M383.8 521.3L410.8 514.7L421.8 482Z" fill="#30383b" stroke="#30383b"></path><path d="M449 483.7L450.3 471.7L425.3 467Z" fill="#282f31" stroke="#282f31"></path><path d="M394.5 537.7L410.8 514.7L383.8 521.3Z" fill="#30383b" stroke="#30383b"></path><path d="M282.5 302.3L253.3 344.7L280 335Z" fill="#2a3234" stroke="#2a3234"></path><path d="M280 335L253.3 344.7L271.8 353Z" fill="#293133" stroke="#293133"></path><path d="M323.8 537.7L340 543L320.3 525.7Z" fill="#2f3739" stroke="#2f3739"></path><path d="M228 495.3L236.3 488.7L206.3 456.3Z" fill="#2b3335" stroke="#2b3335"></path><path d="M242.8 514.3L256.3 526L266.8 493.3Z" fill="#2f3739" stroke="#2f3739"></path><path d="M236.3 488.7L256.3 447L206.3 456.3Z" fill="#31393c" stroke="#31393c"></path><path d="M373 306L341 325L370.8 339.3Z" fill="#272e30" stroke="#272e30"></path><path d="M341 325L325.3 305.3L326.3 325.7Z" fill="#282f31" stroke="#282f31"></path><path d="M449 483.7L425.3 467L421.8 482Z" fill="#282f31" stroke="#282f31"></path><path d="M256.3 526L285.5 537L266.8 493.3Z" fill="#2a3234" stroke="#2a3234"></path><path d="M323.8 537.7L320.8 556.3L340 543Z" fill="#2a3234" stroke="#2a3234"></path><path d="M414.5 322.7L373 306L370.8 339.3Z" fill="#2f3739" stroke="#2f3739"></path><path d="M446.5 492.7L449 483.7L421.8 482Z" fill="#262d2f" stroke="#262d2f"></path><path d="M340 543L394.5 537.7L383.8 521.3Z" fill="#262d2f" stroke="#262d2f"></path><path d="M410.8 514.7L446.5 492.7L421.8 482Z" fill="#2a3234" stroke="#2a3234"></path><path d="M473.3 437.7L464 409.3L449.8 445Z" fill="#2c3436" stroke="#2c3436"></path><path d="M449.8 445L464 409.3L420.3 398Z" fill="#272e30" stroke="#272e30"></path><path d="M473.3 437.7L449.8 445L486.5 453Z" fill="#272e30" stroke="#272e30"></path><path d="M437.8 534.7L446.5 492.7L410.8 514.7Z" fill="#2f3739" stroke="#2f3739"></path><path d="M445 336.7L414.5 322.7L427.5 358.3Z" fill="#30383b" stroke="#30383b"></path><path d="M427.5 358.3L414.5 322.7L403.3 371.3Z" fill="#31393c" stroke="#31393c"></path><path d="M253.3 344.7L223.5 366L271.8 353Z" fill="#31393c" stroke="#31393c"></path><path d="M457.3 356L443.5 353L420.3 398Z" fill="#272e30" stroke="#272e30"></path><path d="M242.8 514.3L266.8 493.3L253.8 487Z" fill="#30383b" stroke="#30383b"></path><path d="M206.3 456.3L255.5 423L246.8 403Z" fill="#293133" stroke="#293133"></path><path d="M236.3 488.7L242.8 514.3L253.8 487Z" fill="#2b3335" stroke="#2b3335"></path><path d="M228 495.3L242.8 514.3L236.3 488.7Z" fill="#30383b" stroke="#30383b"></path><path d="M294.5 562.7L320.8 556.3L285.5 537Z" fill="#262d2f" stroke="#262d2f"></path><path d="M285.5 537L320.8 556.3L323.8 537.7Z" fill="#2c3436" stroke="#2c3436"></path><path d="M371 595L400.5 542.3L394.5 537.7Z" fill="#2f3739" stroke="#2f3739"></path><path d="M366 593.7L394.5 537.7L340 543Z" fill="#2f3739" stroke="#2f3739"></path><path d="M394.5 537.7L400.5 542.3L410.8 514.7Z" fill="#282f31" stroke="#282f31"></path><path d="M302.5 283.7L282.5 302.3L299.3 318.3Z" fill="#30383b" stroke="#30383b"></path><path d="M299.3 318.3L282.5 302.3L280 335Z" fill="#2d3538" stroke="#2d3538"></path><path d="M253.3 344.7L217 341.7L223.5 366Z" fill="#30383b" stroke="#30383b"></path><path d="M302.5 283.7L299.3 318.3L325.3 305.3Z" fill="#2b3335" stroke="#2b3335"></path><path d="M189.5 385L206.3 456.3L246.8 403Z" fill="#272e30" stroke="#272e30"></path><path d="M476.3 478L450.3 471.7L449 483.7Z" fill="#2f3739" stroke="#2f3739"></path><path d="M486.5 453L449.8 445L450.3 471.7Z" fill="#2a3234" stroke="#2a3234"></path><path d="M502.5 357.7L457.3 356L464 409.3Z" fill="#2b3335" stroke="#2b3335"></path><path d="M464 409.3L457.3 356L420.3 398Z" fill="#262d2f" stroke="#262d2f"></path><path d="M443.5 353L445 336.7L427.5 358.3Z" fill="#2a3234" stroke="#2a3234"></path><path d="M457.3 356L445 336.7L443.5 353Z" fill="#262d2f" stroke="#262d2f"></path><path d="M486.5 453L479.8 428.7L473.3 437.7Z" fill="#30383b" stroke="#30383b"></path><path d="M473.3 437.7L479.8 428.7L464 409.3Z" fill="#282f31" stroke="#282f31"></path><path d="M242.8 514.3L257.5 543.3L256.3 526Z" fill="#272e30" stroke="#272e30"></path><path d="M256.3 526L257.5 543.3L285.5 537Z" fill="#272e30" stroke="#272e30"></path><path d="M219.8 515L257.5 543.3L242.8 514.3Z" fill="#2d3538" stroke="#2d3538"></path><path d="M257.5 543.3L294.5 562.7L285.5 537Z" fill="#262d2f" stroke="#262d2f"></path><path d="M320.8 556.3L320.3 579L340 543Z" fill="#282f31" stroke="#282f31"></path><path d="M351.8 244.3L302.5 283.7L325.3 305.3Z" fill="#262d2f" stroke="#262d2f"></path><path d="M216.5 316.7L217 341.7L253.3 344.7Z" fill="#31393c" stroke="#31393c"></path><path d="M223.5 366L189.5 385L246.8 403Z" fill="#2b3335" stroke="#2b3335"></path><path d="M216.5 316.7L253.3 344.7L282.5 302.3Z" fill="#2c3436" stroke="#2c3436"></path><path d="M172.8 486.7L219.8 515L228 495.3Z" fill="#2b3335" stroke="#2b3335"></path><path d="M228 495.3L219.8 515L242.8 514.3Z" fill="#2d3538" stroke="#2d3538"></path><path d="M400.5 542.3L437.8 534.7L410.8 514.7Z" fill="#2b3335" stroke="#2b3335"></path><path d="M446.5 492.7L476.3 478L449 483.7Z" fill="#262d2f" stroke="#262d2f"></path><path d="M479 549.3L476.3 478L446.5 492.7Z" fill="#2a3234" stroke="#2a3234"></path><path d="M476.3 478L486.5 453L450.3 471.7Z" fill="#2d3538" stroke="#2d3538"></path><path d="M320.3 579L316 575.7L310.5 599.7Z" fill="#2f3739" stroke="#2f3739"></path><path d="M294.5 562.7L316 575.7L320.8 556.3Z" fill="#2f3739" stroke="#2f3739"></path><path d="M400.5 542.3L459 588L437.8 534.7Z" fill="#272e30" stroke="#272e30"></path><path d="M217 341.7L200.5 359.3L223.5 366Z" fill="#2d3538" stroke="#2d3538"></path><path d="M200.5 359.3L189.5 385L223.5 366Z" fill="#262d2f" stroke="#262d2f"></path><path d="M206.3 456.3L172.8 486.7L228 495.3Z" fill="#2a3234" stroke="#2a3234"></path><path d="M310.5 599.7L316 575.7L294.5 562.7Z" fill="#262d2f" stroke="#262d2f"></path><path d="M316 575.7L320.3 579L320.8 556.3Z" fill="#282f31" stroke="#282f31"></path><path d="M217 341.7L216.5 316.7L200.5 359.3Z" fill="#272e30" stroke="#272e30"></path><path d="M130.3 388.7L163 422L189.5 385Z" fill="#2b3335" stroke="#2b3335"></path><path d="M209 299.3L216.5 316.7L282.5 302.3Z" fill="#293133" stroke="#293133"></path><path d="M500.5 458.3L500.8 439.7L486.5 453Z" fill="#31393c" stroke="#31393c"></path><path d="M486.5 453L500.8 439.7L479.8 428.7Z" fill="#272e30" stroke="#272e30"></path><path d="M479.8 428.7L502.5 357.7L464 409.3Z" fill="#262d2f" stroke="#262d2f"></path><path d="M476.3 478L500.5 458.3L486.5 453Z" fill="#31393c" stroke="#31393c"></path><path d="M508 474L500.5 458.3L476.3 478Z" fill="#272e30" stroke="#272e30"></path><path d="M391.8 260.7L380.3 264L373 306Z" fill="#2f3739" stroke="#2f3739"></path><path d="M373 306L380.3 264L325.3 305.3Z" fill="#272e30" stroke="#272e30"></path><path d="M391.8 260.7L373 306L414.5 322.7Z" fill="#262d2f" stroke="#262d2f"></path><path d="M351.8 244.3L294 263L302.5 283.7Z" fill="#2f3739" stroke="#2f3739"></path><path d="M302.5 283.7L294 263L282.5 302.3Z" fill="#30383b" stroke="#30383b"></path><path d="M163 422L173 470L206.3 456.3Z" fill="#30383b" stroke="#30383b"></path><path d="M320.3 579L366 593.7L340 543Z" fill="#30383b" stroke="#30383b"></path><path d="M366 593.7L371 595L394.5 537.7Z" fill="#2a3234" stroke="#2a3234"></path><path d="M451.3 247L391.8 260.7L414.5 322.7Z" fill="#272e30" stroke="#272e30"></path><path d="M380.3 264L351.8 244.3L325.3 305.3Z" fill="#2a3234" stroke="#2a3234"></path><path d="M148.8 354.7L189.5 385L200.5 359.3Z" fill="#282f31" stroke="#282f31"></path><path d="M189.5 385L163 422L206.3 456.3Z" fill="#31393c" stroke="#31393c"></path><path d="M160.3 485.3L172.8 486.7L173 470Z" fill="#282f31" stroke="#282f31"></path><path d="M173 470L172.8 486.7L206.3 456.3Z" fill="#293133" stroke="#293133"></path><path d="M219.8 515L230.3 565L257.5 543.3Z" fill="#272e30" stroke="#272e30"></path><path d="M195.5 550L230.3 565L219.8 515Z" fill="#2f3739" stroke="#2f3739"></path><path d="M257.5 543.3L253.8 584L294.5 562.7Z" fill="#262d2f" stroke="#262d2f"></path><path d="M320.3 579L338.3 614.3L366 593.7Z" fill="#30383b" stroke="#30383b"></path><path d="M366 593.7L373.8 612.7L371 595Z" fill="#272e30" stroke="#272e30"></path><path d="M277.3 618.7L310.5 599.7L294.5 562.7Z" fill="#2b3335" stroke="#2b3335"></path><path d="M479 549.3L508 474L476.3 478Z" fill="#282f31" stroke="#282f31"></path><path d="M500.5 458.3L520.3 455.3L500.8 439.7Z" fill="#2d3538" stroke="#2d3538"></path><path d="M512 470.7L508 474L540 474Z" fill="#31393c" stroke="#31393c"></path><path d="M500.8 439.7L502.5 357.7L479.8 428.7Z" fill="#2a3234" stroke="#2a3234"></path><path d="M457.3 356L507.3 347L445 336.7Z" fill="#272e30" stroke="#272e30"></path><path d="M445 336.7L478.3 291.7L414.5 322.7Z" fill="#2b3335" stroke="#2b3335"></path><path d="M571.5 418.7L502.5 357.7L500.8 439.7Z" fill="#30383b" stroke="#30383b"></path><path d="M230.3 565L253.8 584L257.5 543.3Z" fill="#262d2f" stroke="#262d2f"></path><path d="M269.5 251.3L209 299.3L282.5 302.3Z" fill="#2f3739" stroke="#2f3739"></path><path d="M151.8 342.3L148.8 354.7L200.5 359.3Z" fill="#293133" stroke="#293133"></path><path d="M479 549.3L446.5 492.7L437.8 534.7Z" fill="#2b3335" stroke="#2b3335"></path><path d="M508 474L512 470.7L500.5 458.3Z" fill="#2d3538" stroke="#2d3538"></path><path d="M391.8 260.7L351.8 244.3L380.3 264Z" fill="#2f3739" stroke="#2f3739"></path><path d="M512 470.7L520.3 455.3L500.5 458.3Z" fill="#272e30" stroke="#272e30"></path><path d="M351.8 244.3L293.3 245.3L294 263Z" fill="#31393c" stroke="#31393c"></path><path d="M294 263L269.5 251.3L282.5 302.3Z" fill="#262d2f" stroke="#262d2f"></path><path d="M274.5 249L269.5 251.3L294 263Z" fill="#2a3234" stroke="#2a3234"></path><path d="M123.5 458.7L160.3 485.3L173 470Z" fill="#31393c" stroke="#31393c"></path><path d="M172.8 486.7L195.5 550L219.8 515Z" fill="#272e30" stroke="#272e30"></path><path d="M588.5 353L507.3 347L502.5 357.7Z" fill="#30383b" stroke="#30383b"></path><path d="M502.5 357.7L507.3 347L457.3 356Z" fill="#30383b" stroke="#30383b"></path><path d="M293.3 245.3L274.5 249L294 263Z" fill="#293133" stroke="#293133"></path><path d="M459 588L479 549.3L437.8 534.7Z" fill="#272e30" stroke="#272e30"></path><path d="M540 474L535.5 456L520.3 455.3Z" fill="#30383b" stroke="#30383b"></path><path d="M160.3 485.3L195.5 550L172.8 486.7Z" fill="#2b3335" stroke="#2b3335"></path><path d="M273.8 632L277.3 618.7L253.8 584Z" fill="#2f3739" stroke="#2f3739"></path><path d="M313.3 625L338.3 614.3L310.5 599.7Z" fill="#262d2f" stroke="#262d2f"></path><path d="M310.5 599.7L338.3 614.3L320.3 579Z" fill="#2d3538" stroke="#2d3538"></path><path d="M371 595L394.3 615.7L400.5 542.3Z" fill="#2f3739" stroke="#2f3739"></path><path d="M338.3 614.3L373.8 612.7L366 593.7Z" fill="#282f31" stroke="#282f31"></path><path d="M492.8 298L478.3 291.7L445 336.7Z" fill="#31393c" stroke="#31393c"></path><path d="M407.5 214.3L349 205L351.8 244.3Z" fill="#31393c" stroke="#31393c"></path><path d="M273.5 224L257.5 244.3L274.5 249Z" fill="#282f31" stroke="#282f31"></path><path d="M274.5 249L257.5 244.3L269.5 251.3Z" fill="#2d3538" stroke="#2d3538"></path><path d="M269.5 251.3L257.5 244.3L209 299.3Z" fill="#2b3335" stroke="#2b3335"></path><path d="M273.5 224L274.5 249L293.3 245.3Z" fill="#30383b" stroke="#30383b"></path><path d="M377.3 637L394.3 615.7L373.8 612.7Z" fill="#30383b" stroke="#30383b"></path><path d="M373.8 612.7L394.3 615.7L371 595Z" fill="#30383b" stroke="#30383b"></path><path d="M540 474L520.3 455.3L512 470.7Z" fill="#2b3335" stroke="#2b3335"></path><path d="M520.3 455.3L535.5 456L500.8 439.7Z" fill="#272e30" stroke="#272e30"></path><path d="M507.3 347L492.8 298L445 336.7Z" fill="#31393c" stroke="#31393c"></path><path d="M277.3 618.7L294.5 562.7L253.8 584Z" fill="#2d3538" stroke="#2d3538"></path><path d="M277.3 618.7L313.3 625L310.5 599.7Z" fill="#2b3335" stroke="#2b3335"></path><path d="M338.3 614.3L365 628.7L373.8 612.7Z" fill="#262d2f" stroke="#262d2f"></path><path d="M151.8 342.3L216.5 316.7L209 299.3Z" fill="#272e30" stroke="#272e30"></path><path d="M151.8 342.3L200.5 359.3L216.5 316.7Z" fill="#282f31" stroke="#282f31"></path><path d="M163 422L123.5 458.7L173 470Z" fill="#262d2f" stroke="#262d2f"></path><path d="M273.8 632L253.8 584L211 633Z" fill="#2d3538" stroke="#2d3538"></path><path d="M394.3 615.7L459 588L400.5 542.3Z" fill="#30383b" stroke="#30383b"></path><path d="M560.3 512.3L540 474L508 474Z" fill="#2a3234" stroke="#2a3234"></path><path d="M138.5 319L151.8 342.3L209 299.3Z" fill="#2a3234" stroke="#2a3234"></path><path d="M459 588L479.8 571L479 549.3Z" fill="#31393c" stroke="#31393c"></path><path d="M353.3 633.7L365 628.7L338.3 614.3Z" fill="#31393c" stroke="#31393c"></path><path d="M394.3 615.7L414.5 635.7L459 588Z" fill="#2b3335" stroke="#2b3335"></path><path d="M519.8 314.3L496 291L492.8 298Z" fill="#2a3234" stroke="#2a3234"></path><path d="M492.8 298L496 291L478.3 291.7Z" fill="#2f3739" stroke="#2f3739"></path><path d="M478.3 291.7L451.3 247L414.5 322.7Z" fill="#282f31" stroke="#282f31"></path><path d="M519.8 314.3L492.8 298L507.3 347Z" fill="#272e30" stroke="#272e30"></path><path d="M560.3 512.3L508 474L543.5 555.3Z" fill="#2a3234" stroke="#2a3234"></path><path d="M585.3 336.3L519.8 314.3L507.3 347Z" fill="#262d2f" stroke="#262d2f"></path><path d="M313.3 625L353.3 633.7L338.3 614.3Z" fill="#293133" stroke="#293133"></path><path d="M366.8 647.7L353.3 633.7L352 654.3Z" fill="#2c3436" stroke="#2c3436"></path><path d="M106.3 358L130.3 388.7L148.8 354.7Z" fill="#31393c" stroke="#31393c"></path><path d="M148.8 354.7L130.3 388.7L189.5 385Z" fill="#282f31" stroke="#282f31"></path><path d="M276.8 195.3L273.5 224L281.5 191Z" fill="#2d3538" stroke="#2d3538"></path><path d="M192 261.3L185.5 277.3L209 299.3Z" fill="#31393c" stroke="#31393c"></path><path d="M486.8 274.3L451.3 247L478.3 291.7Z" fill="#2f3739" stroke="#2f3739"></path><path d="M351.8 244.3L349 205L293.3 245.3Z" fill="#282f31" stroke="#282f31"></path><path d="M192 261.3L209 299.3L257.5 244.3Z" fill="#262d2f" stroke="#262d2f"></path><path d="M496 291L486.8 274.3L478.3 291.7Z" fill="#2d3538" stroke="#2d3538"></path><path d="M571.5 418.7L500.8 439.7L535.5 456Z" fill="#272e30" stroke="#272e30"></path><path d="M524.5 245.7L496.8 233.7L486.8 274.3Z" fill="#31393c" stroke="#31393c"></path><path d="M252.5 222.7L245.8 231.7L257.5 244.3Z" fill="#31393c" stroke="#31393c"></path><path d="M366.8 647.7L377.3 637L365 628.7Z" fill="#2f3739" stroke="#2f3739"></path><path d="M365 628.7L377.3 637L373.8 612.7Z" fill="#30383b" stroke="#30383b"></path><path d="M209.8 601.7L253.8 584L230.3 565Z" fill="#282f31" stroke="#282f31"></path><path d="M277.3 618.7L273.8 632L313.3 625Z" fill="#293133" stroke="#293133"></path><path d="M366.8 647.7L380 642L377.3 637Z" fill="#2a3234" stroke="#2a3234"></path><path d="M118 407.7L123.5 458.7L163 422Z" fill="#282f31" stroke="#282f31"></path><path d="M166 609.3L192 587.3L136.3 601.7Z" fill="#272e30" stroke="#272e30"></path><path d="M128.8 495.7L195.5 550L160.3 485.3Z" fill="#282f31" stroke="#282f31"></path><path d="M195.5 550L192 587.3L230.3 565Z" fill="#2c3436" stroke="#2c3436"></path><path d="M192 587.3L209.8 601.7L230.3 565Z" fill="#31393c" stroke="#31393c"></path><path d="M560 468.3L551.5 468.3L560.3 512.3Z" fill="#262d2f" stroke="#262d2f"></path><path d="M540 474L551.5 468.3L535.5 456Z" fill="#2d3538" stroke="#2d3538"></path><path d="M245.8 231.7L192 261.3L257.5 244.3Z" fill="#262d2f" stroke="#262d2f"></path><path d="M185.5 277.3L138.5 319L209 299.3Z" fill="#2c3436" stroke="#2c3436"></path><path d="M273.5 224L252.5 222.7L257.5 244.3Z" fill="#2a3234" stroke="#2a3234"></path><path d="M245.8 231.7L202.5 235.7L192 261.3Z" fill="#31393c" stroke="#31393c"></path><path d="M91.8 401.3L118 407.7L130.3 388.7Z" fill="#262d2f" stroke="#262d2f"></path><path d="M130.3 388.7L118 407.7L163 422Z" fill="#2d3538" stroke="#2d3538"></path><path d="M106.3 358L148.8 354.7L151.8 342.3Z" fill="#31393c" stroke="#31393c"></path><path d="M123.5 458.7L128.8 495.7L160.3 485.3Z" fill="#262d2f" stroke="#262d2f"></path><path d="M407.5 214.3L351.8 244.3L391.8 260.7Z" fill="#2a3234" stroke="#2a3234"></path><path d="M273.5 224L271.3 202L252.5 222.7Z" fill="#262d2f" stroke="#262d2f"></path><path d="M366.8 647.7L365 628.7L353.3 633.7Z" fill="#293133" stroke="#293133"></path><path d="M377.3 637L380 642L394.3 615.7Z" fill="#2f3739" stroke="#2f3739"></path><path d="M451.3 247L407.5 214.3L391.8 260.7Z" fill="#272e30" stroke="#272e30"></path><path d="M380 642L414.5 635.7L394.3 615.7Z" fill="#272e30" stroke="#272e30"></path><path d="M459 588L486 613.3L479.8 571Z" fill="#282f31" stroke="#282f31"></path><path d="M352 654.3L353.3 633.7L313.3 625Z" fill="#2c3436" stroke="#2c3436"></path><path d="M438.5 666L454.5 644L414.5 635.7Z" fill="#282f31" stroke="#282f31"></path><path d="M119 309.7L138.5 319L185.5 277.3Z" fill="#262d2f" stroke="#262d2f"></path><path d="M560.3 512.3L551.5 468.3L540 474Z" fill="#272e30" stroke="#272e30"></path><path d="M551.5 468.3L574.5 442.7L535.5 456Z" fill="#2b3335" stroke="#2b3335"></path><path d="M308.5 691.3L352 654.3L313.3 625Z" fill="#2a3234" stroke="#2a3234"></path><path d="M423.8 671.3L414.5 635.7L380 642Z" fill="#272e30" stroke="#272e30"></path><path d="M118 407.7L109.8 457.7L123.5 458.7Z" fill="#293133" stroke="#293133"></path><path d="M123.5 458.7L109.8 457.7L128.8 495.7Z" fill="#2a3234" stroke="#2a3234"></path><path d="M239.8 206L202.5 235.7L245.8 231.7Z" fill="#30383b" stroke="#30383b"></path><path d="M165.3 242L119 309.7L185.5 277.3Z" fill="#2b3335" stroke="#2b3335"></path><path d="M276.8 195.3L271.3 202L273.5 224Z" fill="#2c3436" stroke="#2c3436"></path><path d="M197.3 224L193.8 233L202.5 235.7Z" fill="#31393c" stroke="#31393c"></path><path d="M574.5 442.7L571.5 418.7L535.5 456Z" fill="#293133" stroke="#293133"></path><path d="M560 468.3L574.5 442.7L551.5 468.3Z" fill="#2b3335" stroke="#2b3335"></path><path d="M281.5 191L273.5 224L293.3 245.3Z" fill="#2a3234" stroke="#2a3234"></path><path d="M239.8 206L245.8 231.7L252.5 222.7Z" fill="#31393c" stroke="#31393c"></path><path d="M543.5 555.3L479 549.3L479.8 571Z" fill="#272e30" stroke="#272e30"></path><path d="M543.5 555.3L508 474L479 549.3Z" fill="#272e30" stroke="#272e30"></path><path d="M560 468.3L614.8 439.3L574.5 442.7Z" fill="#30383b" stroke="#30383b"></path><path d="M454.5 644L486 613.3L459 588Z" fill="#282f31" stroke="#282f31"></path><path d="M239.8 206L252.5 222.7L271.3 202Z" fill="#2a3234" stroke="#2a3234"></path><path d="M202.5 235.7L193.8 233L192 261.3Z" fill="#2f3739" stroke="#2f3739"></path><path d="M276.8 195.3L239.8 206L271.3 202Z" fill="#2a3234" stroke="#2a3234"></path><path d="M119 309.7L106.3 358L138.5 319Z" fill="#272e30" stroke="#272e30"></path><path d="M138.5 319L106.3 358L151.8 342.3Z" fill="#2a3234" stroke="#2a3234"></path><path d="M118 407.7L91.8 401.3L109.8 457.7Z" fill="#2f3739" stroke="#2f3739"></path><path d="M334.5 148.3L281.5 191L349 205Z" fill="#293133" stroke="#293133"></path><path d="M349 205L281.5 191L293.3 245.3Z" fill="#30383b" stroke="#30383b"></path><path d="M268.5 144L203.8 171L239.8 206Z" fill="#2b3335" stroke="#2b3335"></path><path d="M211 633L257.3 654.3L273.8 632Z" fill="#272e30" stroke="#272e30"></path><path d="M273.8 632L268.5 663L313.3 625Z" fill="#2a3234" stroke="#2a3234"></path><path d="M211 633L253.8 584L209.8 601.7Z" fill="#293133" stroke="#293133"></path><path d="M180.8 612L209.8 601.7L192 587.3Z" fill="#282f31" stroke="#282f31"></path><path d="M180.8 612L211 633L209.8 601.7Z" fill="#2b3335" stroke="#2b3335"></path><path d="M166 609.3L180.8 612L192 587.3Z" fill="#2f3739" stroke="#2f3739"></path><path d="M192 587.3L195.5 550L136.3 601.7Z" fill="#272e30" stroke="#272e30"></path><path d="M518.3 601.3L543.5 555.3L479.8 571Z" fill="#2c3436" stroke="#2c3436"></path><path d="M239.8 206L197.3 224L202.5 235.7Z" fill="#2a3234" stroke="#2a3234"></path><path d="M165.3 242L185.5 277.3L192 261.3Z" fill="#30383b" stroke="#30383b"></path><path d="M86.8 369L91.8 401.3L130.3 388.7Z" fill="#282f31" stroke="#282f31"></path><path d="M173.8 239.7L192 261.3L193.8 233Z" fill="#2f3739" stroke="#2f3739"></path><path d="M106.3 358L86.8 369L130.3 388.7Z" fill="#2f3739" stroke="#2f3739"></path><path d="M231.5 677.3L268.5 663L257.3 654.3Z" fill="#282f31" stroke="#282f31"></path><path d="M257.3 654.3L268.5 663L273.8 632Z" fill="#2c3436" stroke="#2c3436"></path><path d="M184.8 213.7L173.8 239.7L193.8 233Z" fill="#2f3739" stroke="#2f3739"></path><path d="M371.5 678L380 642L366.8 647.7Z" fill="#2f3739" stroke="#2f3739"></path><path d="M414.5 635.7L454.5 644L459 588Z" fill="#2c3436" stroke="#2c3436"></path><path d="M371.5 678L366.8 647.7L352 654.3Z" fill="#30383b" stroke="#30383b"></path><path d="M524.5 245.7L496 291L519.8 314.3Z" fill="#272e30" stroke="#272e30"></path><path d="M524.5 245.7L486.8 274.3L496 291Z" fill="#272e30" stroke="#272e30"></path><path d="M486.8 274.3L496.8 233.7L451.3 247Z" fill="#262d2f" stroke="#262d2f"></path><path d="M451.3 247L467.8 208.7L407.5 214.3Z" fill="#293133" stroke="#293133"></path><path d="M180.8 612L193.5 636.7L211 633Z" fill="#262d2f" stroke="#262d2f"></path><path d="M111.3 538L195.5 550L128.8 495.7Z" fill="#2b3335" stroke="#2b3335"></path><path d="M144.3 226.7L165.3 242L147.8 211.3Z" fill="#293133" stroke="#293133"></path><path d="M173.8 239.7L165.3 242L192 261.3Z" fill="#262d2f" stroke="#262d2f"></path><path d="M511.8 616.7L518.3 601.3L486 613.3Z" fill="#2c3436" stroke="#2c3436"></path><path d="M486 613.3L518.3 601.3L479.8 571Z" fill="#262d2f" stroke="#262d2f"></path><path d="M100.8 517.7L128.8 495.7L76.5 499.3Z" fill="#2b3335" stroke="#2b3335"></path><path d="M100.8 517.7L111.3 538L128.8 495.7Z" fill="#2f3739" stroke="#2f3739"></path><path d="M496.8 233.7L467.8 208.7L451.3 247Z" fill="#2b3335" stroke="#2b3335"></path><path d="M407.5 214.3L395 174.3L349 205Z" fill="#31393c" stroke="#31393c"></path><path d="M76.5 499.3L128.8 495.7L109.8 457.7Z" fill="#2c3436" stroke="#2c3436"></path><path d="M308.5 691.3L371.5 678L352 654.3Z" fill="#2b3335" stroke="#2b3335"></path><path d="M166 609.3L193.5 636.7L180.8 612Z" fill="#282f31" stroke="#282f31"></path><path d="M211 633L226.3 670.7L257.3 654.3Z" fill="#293133" stroke="#293133"></path><path d="M454.5 644L496.5 626.3L486 613.3Z" fill="#31393c" stroke="#31393c"></path><path d="M615.5 424L592.8 400.7L571.5 418.7Z" fill="#2c3436" stroke="#2c3436"></path><path d="M571.5 418.7L588.5 353L502.5 357.7Z" fill="#262d2f" stroke="#262d2f"></path><path d="M615.5 424L571.5 418.7L574.5 442.7Z" fill="#2c3436" stroke="#2c3436"></path><path d="M86.5 352.7L86.8 369L106.3 358Z" fill="#2b3335" stroke="#2b3335"></path><path d="M91.8 401.3L68.3 424L109.8 457.7Z" fill="#282f31" stroke="#282f31"></path><path d="M419.3 168L395 174.3L407.5 214.3Z" fill="#2a3234" stroke="#2a3234"></path><path d="M496.5 626.3L511.8 616.7L486 613.3Z" fill="#2b3335" stroke="#2b3335"></path><path d="M574.8 575L568.3 546L543.5 555.3Z" fill="#262d2f" stroke="#262d2f"></path><path d="M572.8 285.3L524.5 245.7L519.8 314.3Z" fill="#30383b" stroke="#30383b"></path><path d="M496.8 233.7L513 209.3L467.8 208.7Z" fill="#2c3436" stroke="#2c3436"></path><path d="M143.5 637.3L197 644L193.5 636.7Z" fill="#30383b" stroke="#30383b"></path><path d="M193.5 636.7L197 644L211 633Z" fill="#30383b" stroke="#30383b"></path><path d="M543.5 555.3L568.3 546L560.3 512.3Z" fill="#2b3335" stroke="#2b3335"></path><path d="M597.5 531.3L614.8 439.3L560 468.3Z" fill="#262d2f" stroke="#262d2f"></path><path d="M544.3 590.7L543.5 555.3L518.3 601.3Z" fill="#2b3335" stroke="#2b3335"></path><path d="M371.5 678L423.8 671.3L380 642Z" fill="#262d2f" stroke="#262d2f"></path><path d="M511.3 663L516 656.3L496.5 626.3Z" fill="#2b3335" stroke="#2b3335"></path><path d="M201 190.7L184.8 213.7L197.3 224Z" fill="#31393c" stroke="#31393c"></path><path d="M197.3 224L184.8 213.7L193.8 233Z" fill="#282f31" stroke="#282f31"></path><path d="M201 190.7L197.3 224L239.8 206Z" fill="#31393c" stroke="#31393c"></path><path d="M423.8 671.3L438.5 666L414.5 635.7Z" fill="#2f3739" stroke="#2f3739"></path><path d="M496.5 626.3L524.3 632.7L511.8 616.7Z" fill="#2f3739" stroke="#2f3739"></path><path d="M119 309.7L86.5 352.7L106.3 358Z" fill="#262d2f" stroke="#262d2f"></path><path d="M91.3 301.7L86.5 352.7L119 309.7Z" fill="#2c3436" stroke="#2c3436"></path><path d="M91.3 301.7L119 309.7L78 276Z" fill="#30383b" stroke="#30383b"></path><path d="M79 372L79.3 385.3L86.8 369Z" fill="#31393c" stroke="#31393c"></path><path d="M86.8 369L79.3 385.3L91.8 401.3Z" fill="#2f3739" stroke="#2f3739"></path><path d="M592.8 400.7L588.5 353L571.5 418.7Z" fill="#262d2f" stroke="#262d2f"></path><path d="M588.5 353L585.3 336.3L507.3 347Z" fill="#282f31" stroke="#282f31"></path><path d="M86.5 352.7L79 372L86.8 369Z" fill="#2b3335" stroke="#2b3335"></path><path d="M100.8 517.7L101.8 545L111.3 538Z" fill="#2d3538" stroke="#2d3538"></path><path d="M124 594.3L136.3 601.7L195.5 550Z" fill="#2b3335" stroke="#2b3335"></path><path d="M166 609.3L143.5 637.3L193.5 636.7Z" fill="#2b3335" stroke="#2b3335"></path><path d="M50.8 525L101.8 545L100.8 517.7Z" fill="#30383b" stroke="#30383b"></path><path d="M551 625.7L544.3 590.7L518.3 601.3Z" fill="#262d2f" stroke="#262d2f"></path><path d="M575 251L527 239.7L524.5 245.7Z" fill="#262d2f" stroke="#262d2f"></path><path d="M524.5 245.7L527 239.7L496.8 233.7Z" fill="#31393c" stroke="#31393c"></path><path d="M124 594.3L195.5 550L111.3 538Z" fill="#2b3335" stroke="#2b3335"></path><path d="M294.3 703.3L308.5 691.3L268.5 663Z" fill="#2b3335" stroke="#2b3335"></path><path d="M268.5 663L308.5 691.3L313.3 625Z" fill="#282f31" stroke="#282f31"></path><path d="M458 746.3L446.8 675.7L423.8 671.3Z" fill="#282f31" stroke="#282f31"></path><path d="M62 384.3L68.3 424L79.3 385.3Z" fill="#31393c" stroke="#31393c"></path><path d="M79.3 385.3L68.3 424L91.8 401.3Z" fill="#2a3234" stroke="#2a3234"></path><path d="M231.5 677.3L226.3 670.7L212 679.3Z" fill="#2c3436" stroke="#2c3436"></path><path d="M197 644L226.3 670.7L211 633Z" fill="#272e30" stroke="#272e30"></path><path d="M467.8 208.7L419.3 168L407.5 214.3Z" fill="#262d2f" stroke="#262d2f"></path><path d="M395 174.3L334.5 148.3L349 205Z" fill="#262d2f" stroke="#262d2f"></path><path d="M473.3 150L419.3 168L467.8 208.7Z" fill="#31393c" stroke="#31393c"></path><path d="M53 454.3L76.5 499.3L109.8 457.7Z" fill="#2d3538" stroke="#2d3538"></path><path d="M203.8 171L201 190.7L239.8 206Z" fill="#2d3538" stroke="#2d3538"></path><path d="M144.3 226.7L119 309.7L165.3 242Z" fill="#2b3335" stroke="#2b3335"></path><path d="M239.8 206L276.8 195.3L268.5 144Z" fill="#2f3739" stroke="#2f3739"></path><path d="M419.3 168L405.5 162.3L395 174.3Z" fill="#2c3436" stroke="#2c3436"></path><path d="M626.8 344L589.3 323L585.3 336.3Z" fill="#282f31" stroke="#282f31"></path><path d="M585.3 336.3L589.3 323L519.8 314.3Z" fill="#272e30" stroke="#272e30"></path><path d="M617.3 358.3L585.3 336.3L588.5 353Z" fill="#2b3335" stroke="#2b3335"></path><path d="M101.8 545L124 594.3L111.3 538Z" fill="#2b3335" stroke="#2b3335"></path><path d="M212 679.3L226.3 670.7L197 644Z" fill="#2c3436" stroke="#2c3436"></path><path d="M129 621.7L124 594.3L92.3 600.3Z" fill="#30383b" stroke="#30383b"></path><path d="M423.8 671.3L446.8 675.7L438.5 666Z" fill="#282f31" stroke="#282f31"></path><path d="M438.5 666L446.8 675.7L454.5 644Z" fill="#2c3436" stroke="#2c3436"></path><path d="M511.8 616.7L524.3 632.7L518.3 601.3Z" fill="#262d2f" stroke="#262d2f"></path><path d="M382.3 720L423.8 671.3L371.5 678Z" fill="#282f31" stroke="#282f31"></path><path d="M212 679.3L197 644L181.3 682.3Z" fill="#2c3436" stroke="#2c3436"></path><path d="M226.3 670.7L231.5 677.3L257.3 654.3Z" fill="#272e30" stroke="#272e30"></path><path d="M589.3 323L572.8 285.3L519.8 314.3Z" fill="#262d2f" stroke="#262d2f"></path><path d="M165.3 242L173.8 239.7L147.8 211.3Z" fill="#2a3234" stroke="#2a3234"></path><path d="M62.8 366L62 384.3L79 372Z" fill="#293133" stroke="#293133"></path><path d="M79 372L62 384.3L79.3 385.3Z" fill="#2d3538" stroke="#2d3538"></path><path d="M351.5 135.7L334.5 148.3L395 174.3Z" fill="#272e30" stroke="#272e30"></path><path d="M147.8 211.3L173.8 239.7L184.8 213.7Z" fill="#2f3739" stroke="#2f3739"></path><path d="M597.5 531.3L560 468.3L560.3 512.3Z" fill="#2b3335" stroke="#2b3335"></path><path d="M592.8 400.7L617.3 358.3L588.5 353Z" fill="#31393c" stroke="#31393c"></path><path d="M616 433.7L615.5 424L574.5 442.7Z" fill="#2d3538" stroke="#2d3538"></path><path d="M560.3 201L513 209.3L527 239.7Z" fill="#2a3234" stroke="#2a3234"></path><path d="M527 239.7L513 209.3L496.8 233.7Z" fill="#282f31" stroke="#282f31"></path><path d="M62.8 366L79 372L86.5 352.7Z" fill="#262d2f" stroke="#262d2f"></path><path d="M68.3 424L53 454.3L109.8 457.7Z" fill="#282f31" stroke="#282f31"></path><path d="M614.8 439.3L616 433.7L574.5 442.7Z" fill="#31393c" stroke="#31393c"></path><path d="M516 656.3L524.3 632.7L496.5 626.3Z" fill="#2b3335" stroke="#2b3335"></path><path d="M544.3 590.7L574.8 575L543.5 555.3Z" fill="#282f31" stroke="#282f31"></path><path d="M577.3 592L574.8 575L544.3 590.7Z" fill="#2d3538" stroke="#2d3538"></path><path d="M568.3 546L597.5 531.3L560.3 512.3Z" fill="#2b3335" stroke="#2b3335"></path><path d="M590.8 573.3L597.5 531.3L568.3 546Z" fill="#293133" stroke="#293133"></path><path d="M614.8 439.3L654.3 454.7L616 433.7Z" fill="#293133" stroke="#293133"></path><path d="M44.5 308.3L62.8 366L86.5 352.7Z" fill="#2b3335" stroke="#2b3335"></path><path d="M257.5 696.7L294.3 703.3L268.5 663Z" fill="#30383b" stroke="#30383b"></path><path d="M360 739.7L382.3 720L371.5 678Z" fill="#31393c" stroke="#31393c"></path><path d="M231.5 677.3L257.5 696.7L268.5 663Z" fill="#31393c" stroke="#31393c"></path><path d="M129 621.7L166 609.3L136.3 601.7Z" fill="#31393c" stroke="#31393c"></path><path d="M231.5 677.3L245.5 733.7L257.5 696.7Z" fill="#282f31" stroke="#282f31"></path><path d="M52.5 381L68.3 424L62 384.3Z" fill="#293133" stroke="#293133"></path><path d="M0 440.7L53 454.3L68.3 424Z" fill="#272e30" stroke="#272e30"></path><path d="M76.5 575.3L124 594.3L101.8 545Z" fill="#2c3436" stroke="#2c3436"></path><path d="M192 169L147.8 211.3L184.8 213.7Z" fill="#2c3436" stroke="#2c3436"></path><path d="M103.3 232.3L78 276L119 309.7Z" fill="#2d3538" stroke="#2d3538"></path><path d="M76.5 575.3L101.8 545L50.8 525Z" fill="#2f3739" stroke="#2f3739"></path><path d="M124 594.3L129 621.7L136.3 601.7Z" fill="#262d2f" stroke="#262d2f"></path><path d="M129 621.7L143.5 637.3L166 609.3Z" fill="#293133" stroke="#293133"></path><path d="M268.5 144L276.8 195.3L281.5 191Z" fill="#2a3234" stroke="#2a3234"></path><path d="M201 190.7L192 169L184.8 213.7Z" fill="#282f31" stroke="#282f31"></path><path d="M630.5 360L592.8 400.7L615.5 424Z" fill="#293133" stroke="#293133"></path><path d="M630.5 360L617.3 358.3L592.8 400.7Z" fill="#293133" stroke="#293133"></path><path d="M609.8 267L575 251L572.8 285.3Z" fill="#2d3538" stroke="#2d3538"></path><path d="M23.5 370.3L52.5 381L62.8 366Z" fill="#2b3335" stroke="#2b3335"></path><path d="M62.8 366L52.5 381L62 384.3Z" fill="#272e30" stroke="#272e30"></path><path d="M314 128L268.5 144L281.5 191Z" fill="#2b3335" stroke="#2b3335"></path><path d="M405.5 162.3L351.5 135.7L395 174.3Z" fill="#2d3538" stroke="#2d3538"></path><path d="M271.3 107.3L264.3 138.7L268.5 144Z" fill="#293133" stroke="#293133"></path><path d="M392.5 112.7L351.5 135.7L405.5 162.3Z" fill="#30383b" stroke="#30383b"></path><path d="M420.5 137L405.5 162.3L419.3 168Z" fill="#272e30" stroke="#272e30"></path><path d="M511.3 663L496.5 626.3L454.5 644Z" fill="#2c3436" stroke="#2c3436"></path><path d="M551 625.7L577.3 592L544.3 590.7Z" fill="#262d2f" stroke="#262d2f"></path><path d="M551 625.7L518.3 601.3L524.3 632.7Z" fill="#293133" stroke="#293133"></path><path d="M590.8 573.3L608.3 535L597.5 531.3Z" fill="#282f31" stroke="#282f31"></path><path d="M590.8 573.3L568.3 546L574.8 575Z" fill="#293133" stroke="#293133"></path><path d="M597.5 531.3L640.5 530L614.8 439.3Z" fill="#2f3739" stroke="#2f3739"></path><path d="M516 656.3L551 625.7L524.3 632.7Z" fill="#282f31" stroke="#282f31"></path><path d="M518.8 172.3L491.8 176L513 209.3Z" fill="#2f3739" stroke="#2f3739"></path><path d="M513 209.3L491.8 176L467.8 208.7Z" fill="#2b3335" stroke="#2b3335"></path><path d="M577.3 592L590.8 573.3L574.8 575Z" fill="#2f3739" stroke="#2f3739"></path><path d="M446.8 675.7L511.3 663L454.5 644Z" fill="#2f3739" stroke="#2f3739"></path><path d="M568.3 671L585.8 613.7L551 625.7Z" fill="#282f31" stroke="#282f31"></path><path d="M606 282.3L572.8 285.3L589.3 323Z" fill="#2c3436" stroke="#2c3436"></path><path d="M572.8 285.3L575 251L524.5 245.7Z" fill="#282f31" stroke="#282f31"></path><path d="M196 160.7L192 169L203.8 171Z" fill="#2c3436" stroke="#2c3436"></path><path d="M203.8 171L192 169L201 190.7Z" fill="#2f3739" stroke="#2f3739"></path><path d="M314 128L281.5 191L334.5 148.3Z" fill="#30383b" stroke="#30383b"></path><path d="M268.5 144L264.3 138.7L203.8 171Z" fill="#262d2f" stroke="#262d2f"></path><path d="M371.5 678L308.5 691.3L335 739Z" fill="#2d3538" stroke="#2d3538"></path><path d="M377.3 731.3L382.3 720L360 739.7Z" fill="#2c3436" stroke="#2c3436"></path><path d="M446.8 675.7L476.8 708L511.3 663Z" fill="#30383b" stroke="#30383b"></path><path d="M334.3 120.7L314 128L334.5 148.3Z" fill="#282f31" stroke="#282f31"></path><path d="M103.3 232.3L119 309.7L144.3 226.7Z" fill="#293133" stroke="#293133"></path><path d="M91.3 301.7L44.5 308.3L86.5 352.7Z" fill="#293133" stroke="#293133"></path><path d="M103.3 232.3L144.3 226.7L147.8 211.3Z" fill="#30383b" stroke="#30383b"></path><path d="M264.3 138.7L196 160.7L203.8 171Z" fill="#2c3436" stroke="#2c3436"></path><path d="M192 169L95.8 175.3L147.8 211.3Z" fill="#272e30" stroke="#272e30"></path><path d="M473.3 150L420.5 137L419.3 168Z" fill="#293133" stroke="#293133"></path><path d="M351.5 135.7L334.3 120.7L334.5 148.3Z" fill="#262d2f" stroke="#262d2f"></path><path d="M684.5 403.3L630.5 360L615.5 424Z" fill="#30383b" stroke="#30383b"></path><path d="M617.3 358.3L626.8 344L585.3 336.3Z" fill="#30383b" stroke="#30383b"></path><path d="M654.3 454.7L615.5 424L616 433.7Z" fill="#282f31" stroke="#282f31"></path><path d="M630.5 360L626.8 344L617.3 358.3Z" fill="#293133" stroke="#293133"></path><path d="M133 663L181.3 682.3L143.5 637.3Z" fill="#30383b" stroke="#30383b"></path><path d="M143.5 637.3L181.3 682.3L197 644Z" fill="#31393c" stroke="#31393c"></path><path d="M245.5 733.7L282 734.7L257.5 696.7Z" fill="#262d2f" stroke="#262d2f"></path><path d="M50.8 525L100.8 517.7L76.5 499.3Z" fill="#31393c" stroke="#31393c"></path><path d="M116.8 657.3L133 663L143.5 637.3Z" fill="#2d3538" stroke="#2d3538"></path><path d="M76.5 575.3L92.3 600.3L124 594.3Z" fill="#2f3739" stroke="#2f3739"></path><path d="M0 456.3L42.5 486.7L53 454.3Z" fill="#30383b" stroke="#30383b"></path><path d="M53 454.3L42.5 486.7L76.5 499.3Z" fill="#2f3739" stroke="#2f3739"></path><path d="M95.8 175.3L103.3 232.3L147.8 211.3Z" fill="#2a3234" stroke="#2a3234"></path><path d="M42.5 486.7L50.8 525L76.5 499.3Z" fill="#2d3538" stroke="#2d3538"></path><path d="M627.3 288.7L606 282.3L589.3 323Z" fill="#262d2f" stroke="#262d2f"></path><path d="M350 115.7L334.3 120.7L351.5 135.7Z" fill="#293133" stroke="#293133"></path><path d="M314 128L271.3 107.3L268.5 144Z" fill="#2d3538" stroke="#2d3538"></path><path d="M609.8 267L573.3 231.3L575 251Z" fill="#272e30" stroke="#272e30"></path><path d="M575 251L573.3 231.3L527 239.7Z" fill="#2f3739" stroke="#2f3739"></path><path d="M517.8 152.3L473.3 150L491.8 176Z" fill="#2f3739" stroke="#2f3739"></path><path d="M491.8 176L473.3 150L467.8 208.7Z" fill="#2f3739" stroke="#2f3739"></path><path d="M335 739L294.3 703.3L282 734.7Z" fill="#282f31" stroke="#282f31"></path><path d="M335 739L308.5 691.3L294.3 703.3Z" fill="#2a3234" stroke="#2a3234"></path><path d="M476 722L476.8 708L446.8 675.7Z" fill="#2f3739" stroke="#2f3739"></path><path d="M392.5 112.7L350 115.7L351.5 135.7Z" fill="#262d2f" stroke="#262d2f"></path><path d="M297 100.3L271.3 107.3L314 128Z" fill="#2b3335" stroke="#2b3335"></path><path d="M392.5 112.7L405.5 162.3L420.5 137Z" fill="#31393c" stroke="#31393c"></path><path d="M560.3 201L518.8 172.3L513 209.3Z" fill="#272e30" stroke="#272e30"></path><path d="M551 625.7L585.8 613.7L577.3 592Z" fill="#272e30" stroke="#272e30"></path><path d="M577.3 592L605.8 594.3L590.8 573.3Z" fill="#282f31" stroke="#282f31"></path><path d="M590.8 573.3L616 584.7L608.3 535Z" fill="#262d2f" stroke="#262d2f"></path><path d="M568.3 671L551 625.7L516 656.3Z" fill="#2b3335" stroke="#2b3335"></path><path d="M112.8 646.3L143.5 637.3L129 621.7Z" fill="#2b3335" stroke="#2b3335"></path><path d="M282 734.7L294.3 703.3L257.5 696.7Z" fill="#293133" stroke="#293133"></path><path d="M95.8 175.3L83.8 240.7L103.3 232.3Z" fill="#2f3739" stroke="#2f3739"></path><path d="M103.3 232.3L83.8 240.7L78 276Z" fill="#293133" stroke="#293133"></path><path d="M78 276L44.5 308.3L91.3 301.7Z" fill="#272e30" stroke="#272e30"></path><path d="M245.5 733.7L212 679.3L181.3 682.3Z" fill="#30383b" stroke="#30383b"></path><path d="M245.5 733.7L231.5 677.3L212 679.3Z" fill="#262d2f" stroke="#262d2f"></path><path d="M77 607.7L98.8 630L92.3 600.3Z" fill="#272e30" stroke="#272e30"></path><path d="M92.3 600.3L98.8 630L129 621.7Z" fill="#2d3538" stroke="#2d3538"></path><path d="M77 607.7L92.3 600.3L76.5 575.3Z" fill="#2a3234" stroke="#2a3234"></path><path d="M98.8 630L110.5 643L129 621.7Z" fill="#2c3436" stroke="#2c3436"></path><path d="M627.3 288.7L609.8 267L606 282.3Z" fill="#293133" stroke="#293133"></path><path d="M606 282.3L609.8 267L572.8 285.3Z" fill="#31393c" stroke="#31393c"></path><path d="M573.3 231.3L560.3 201L527 239.7Z" fill="#282f31" stroke="#282f31"></path><path d="M627.3 288.7L589.3 323L626.8 344Z" fill="#282f31" stroke="#282f31"></path><path d="M116.8 657.3L112.8 646.3L103 673.3Z" fill="#293133" stroke="#293133"></path><path d="M110.5 643L112.8 646.3L129 621.7Z" fill="#2d3538" stroke="#2d3538"></path><path d="M335 739L360 739.7L371.5 678Z" fill="#262d2f" stroke="#262d2f"></path><path d="M476 722L446.8 675.7L458 746.3Z" fill="#293133" stroke="#293133"></path><path d="M511.3 663L568.3 671L516 656.3Z" fill="#31393c" stroke="#31393c"></path><path d="M423.8 671.3L382.3 720L458 746.3Z" fill="#31393c" stroke="#31393c"></path><path d="M25.8 283.3L44.5 308.3L78 276Z" fill="#262d2f" stroke="#262d2f"></path><path d="M52.5 381L15.8 381.3L68.3 424Z" fill="#30383b" stroke="#30383b"></path><path d="M577.5 164L560.3 201L595.5 181.3Z" fill="#2c3436" stroke="#2c3436"></path><path d="M585.8 613.7L605.8 594.3L577.3 592Z" fill="#272e30" stroke="#272e30"></path><path d="M640.5 530L654.3 454.7L614.8 439.3Z" fill="#30383b" stroke="#30383b"></path><path d="M426 113.7L392.5 112.7L420.5 137Z" fill="#2b3335" stroke="#2b3335"></path><path d="M32.8 570.3L77 607.7L76.5 575.3Z" fill="#31393c" stroke="#31393c"></path><path d="M103 673.3L112.8 646.3L110.5 643Z" fill="#2c3436" stroke="#2c3436"></path><path d="M640.5 530L597.5 531.3L608.3 535Z" fill="#293133" stroke="#293133"></path><path d="M671.3 307.7L627.3 288.7L626.8 344Z" fill="#262d2f" stroke="#262d2f"></path><path d="M33.3 316.3L23.5 370.3L62.8 366Z" fill="#272e30" stroke="#272e30"></path><path d="M89.8 636L110.5 643L98.8 630Z" fill="#30383b" stroke="#30383b"></path><path d="M112.8 646.3L116.8 657.3L143.5 637.3Z" fill="#2c3436" stroke="#2c3436"></path><path d="M248.8 759L245.5 733.7L245.8 760.7Z" fill="#262d2f" stroke="#262d2f"></path><path d="M675 346.7L626.8 344L630.5 360Z" fill="#282f31" stroke="#282f31"></path><path d="M595.5 181.3L560.3 201L573.3 231.3Z" fill="#2d3538" stroke="#2d3538"></path><path d="M616 584.7L640.5 530L608.3 535Z" fill="#272e30" stroke="#272e30"></path><path d="M493.8 124.7L473.5 135L473.3 150Z" fill="#282f31" stroke="#282f31"></path><path d="M473.3 150L473.5 135L420.5 137Z" fill="#2a3234" stroke="#2a3234"></path><path d="M517.8 152.3L491.8 176L518.8 172.3Z" fill="#30383b" stroke="#30383b"></path><path d="M630.8 592L616 584.7L626.5 606.7Z" fill="#262d2f" stroke="#262d2f"></path><path d="M605.8 594.3L616 584.7L590.8 573.3Z" fill="#282f31" stroke="#282f31"></path><path d="M136.5 735.7L181.3 682.3L133 663Z" fill="#2b3335" stroke="#2b3335"></path><path d="M282 734.7L279.5 755L335 739Z" fill="#31393c" stroke="#31393c"></path><path d="M25.8 283.3L33.3 316.3L44.5 308.3Z" fill="#282f31" stroke="#282f31"></path><path d="M44.5 308.3L33.3 316.3L62.8 366Z" fill="#2f3739" stroke="#2f3739"></path><path d="M33.3 316.3L19.3 368L23.5 370.3Z" fill="#30383b" stroke="#30383b"></path><path d="M23.5 370.3L15.8 381.3L52.5 381Z" fill="#272e30" stroke="#272e30"></path><path d="M473.5 135L426 113.7L420.5 137Z" fill="#2b3335" stroke="#2b3335"></path><path d="M19.3 368L15.8 381.3L23.5 370.3Z" fill="#2c3436" stroke="#2c3436"></path><path d="M0 540L32.8 570.3L50.8 525Z" fill="#2a3234" stroke="#2a3234"></path><path d="M297 100.3L338.8 86.7L299 90Z" fill="#272e30" stroke="#272e30"></path><path d="M297 100.3L314 128L334.3 120.7Z" fill="#2d3538" stroke="#2d3538"></path><path d="M208 91.7L201.3 95L196 160.7Z" fill="#2b3335" stroke="#2b3335"></path><path d="M334.3 120.7L338.8 86.7L297 100.3Z" fill="#262d2f" stroke="#262d2f"></path><path d="M77 607.7L89.8 636L98.8 630Z" fill="#2c3436" stroke="#2c3436"></path><path d="M553.3 140.7L517.8 152.3L518.8 172.3Z" fill="#2a3234" stroke="#2a3234"></path><path d="M473.5 135L471 118L426 113.7Z" fill="#2b3335" stroke="#2b3335"></path><path d="M404.8 761.3L382.3 720L377.3 731.3Z" fill="#2d3538" stroke="#2d3538"></path><path d="M573.8 678L568.3 671L566.5 731.7Z" fill="#2f3739" stroke="#2f3739"></path><path d="M626.5 606.7L616 584.7L605.8 594.3Z" fill="#293133" stroke="#293133"></path><path d="M334.3 120.7L350 115.7L338.8 86.7Z" fill="#2c3436" stroke="#2c3436"></path><path d="M260.8 84.7L261.3 102.3L271.3 107.3Z" fill="#272e30" stroke="#272e30"></path><path d="M271.3 107.3L261.3 102.3L264.3 138.7Z" fill="#2c3436" stroke="#2c3436"></path><path d="M196 160.7L176.8 120L192 169Z" fill="#2f3739" stroke="#2f3739"></path><path d="M248.8 759L279.5 755L245.5 733.7Z" fill="#2a3234" stroke="#2a3234"></path><path d="M245.5 733.7L279.5 755L282 734.7Z" fill="#2b3335" stroke="#2b3335"></path><path d="M373.8 783.3L404.8 761.3L360 739.7Z" fill="#2b3335" stroke="#2b3335"></path><path d="M360 739.7L404.8 761.3L377.3 731.3Z" fill="#30383b" stroke="#30383b"></path><path d="M493.8 124.7L471 118L473.5 135Z" fill="#293133" stroke="#293133"></path><path d="M338.8 86.7L350 115.7L392.5 112.7Z" fill="#2c3436" stroke="#2c3436"></path><path d="M46.3 623.7L75.5 635.7L77 607.7Z" fill="#293133" stroke="#293133"></path><path d="M77 607.7L75.5 635.7L89.8 636Z" fill="#2d3538" stroke="#2d3538"></path><path d="M89.8 636L103 673.3L110.5 643Z" fill="#293133" stroke="#293133"></path><path d="M116.8 657.3L103 673.3L133 663Z" fill="#262d2f" stroke="#262d2f"></path><path d="M32.8 570.3L76.5 575.3L50.8 525Z" fill="#30383b" stroke="#30383b"></path><path d="M573.8 678L566.5 731.7L581.5 708Z" fill="#2d3538" stroke="#2d3538"></path><path d="M0 517.7L50.8 525L42.5 486.7Z" fill="#30383b" stroke="#30383b"></path><path d="M626.5 606.7L605.8 594.3L585.8 613.7Z" fill="#2b3335" stroke="#2b3335"></path><path d="M616 584.7L634.3 588.7L640.5 530Z" fill="#262d2f" stroke="#262d2f"></path><path d="M675 435L675 431L654.3 454.7Z" fill="#262d2f" stroke="#262d2f"></path><path d="M338.8 86.7L392.5 112.7L340 53.3Z" fill="#282f31" stroke="#282f31"></path><path d="M297 100.3L299 90L271.3 107.3Z" fill="#31393c" stroke="#31393c"></path><path d="M675 435L654.3 454.7L675 436.7Z" fill="#282f31" stroke="#282f31"></path><path d="M654.3 454.7L675 431L615.5 424Z" fill="#293133" stroke="#293133"></path><path d="M0 391.3L0 440.7L15.8 381.3Z" fill="#2f3739" stroke="#2f3739"></path><path d="M15.8 381.3L0 440.7L68.3 424Z" fill="#272e30" stroke="#272e30"></path><path d="M675 436.7L654.3 454.7L677.3 439Z" fill="#31393c" stroke="#31393c"></path><path d="M677.3 439L654.3 454.7L675 473.3Z" fill="#30383b" stroke="#30383b"></path><path d="M440.8 86.7L392.5 112.7L426 113.7Z" fill="#31393c" stroke="#31393c"></path><path d="M652.3 598.3L634.3 588.7L630.8 592Z" fill="#2f3739" stroke="#2f3739"></path><path d="M630.8 592L634.3 588.7L616 584.7Z" fill="#2d3538" stroke="#2d3538"></path><path d="M0 440.7L0 456.3L53 454.3Z" fill="#2c3436" stroke="#2c3436"></path><path d="M517.8 152.3L493.8 124.7L473.3 150Z" fill="#272e30" stroke="#272e30"></path><path d="M501 118.7L493.8 124.7L517.8 152.3Z" fill="#293133" stroke="#293133"></path><path d="M0 390L15.8 381.3L19.3 368Z" fill="#293133" stroke="#293133"></path><path d="M0 390L0 391.3L15.8 381.3Z" fill="#2b3335" stroke="#2b3335"></path><path d="M-18.2 310.7L0 390L19.3 368Z" fill="#31393c" stroke="#31393c"></path><path d="M675 473.3L654.3 454.7L675 505.3Z" fill="#30383b" stroke="#30383b"></path><path d="M675 436.7L677.3 439L675 435Z" fill="#2a3234" stroke="#2a3234"></path><path d="M675 435L677.3 439L675 431Z" fill="#30383b" stroke="#30383b"></path><path d="M675 505.3L654.3 454.7L640.5 530Z" fill="#272e30" stroke="#272e30"></path><path d="M75.5 635.7L103 673.3L89.8 636Z" fill="#293133" stroke="#293133"></path><path d="M606.8 671.3L626.5 606.7L585.8 613.7Z" fill="#2b3335" stroke="#2b3335"></path><path d="M83.8 240.7L25.8 283.3L78 276Z" fill="#272e30" stroke="#272e30"></path><path d="M33.3 316.3L-18.2 310.7L19.3 368Z" fill="#2a3234" stroke="#2a3234"></path><path d="M0 282.3L25.8 283.3L0 228Z" fill="#293133" stroke="#293133"></path><path d="M357.5 777.3L360 739.7L335 739Z" fill="#262d2f" stroke="#262d2f"></path><path d="M404.8 761.3L458 746.3L382.3 720Z" fill="#2c3436" stroke="#2c3436"></path><path d="M503.8 741L511.3 663L476.8 708Z" fill="#2f3739" stroke="#2f3739"></path><path d="M684.5 403.3L615.5 424L675 431Z" fill="#2f3739" stroke="#2f3739"></path><path d="M684.5 403.3L675 365L630.5 360Z" fill="#31393c" stroke="#31393c"></path><path d="M196 160.7L264.3 138.7L208 91.7Z" fill="#262d2f" stroke="#262d2f"></path><path d="M201.3 95L176.8 120L196 160.7Z" fill="#282f31" stroke="#282f31"></path><path d="M245.8 760.7L245.5 733.7L206.5 782.3Z" fill="#2f3739" stroke="#2f3739"></path><path d="M313 788.7L357.5 777.3L335 739Z" fill="#2a3234" stroke="#2a3234"></path><path d="M503.8 741L476.8 708L476 722Z" fill="#2d3538" stroke="#2d3538"></path><path d="M568.3 671L606.8 671.3L585.8 613.7Z" fill="#2b3335" stroke="#2b3335"></path><path d="M454.8 753.3L459.8 749.7L458 746.3Z" fill="#31393c" stroke="#31393c"></path><path d="M458 746.3L472 756L476 722Z" fill="#272e30" stroke="#272e30"></path><path d="M694.3 382.3L675 346.7L675 365Z" fill="#2d3538" stroke="#2d3538"></path><path d="M675 365L675 346.7L630.5 360Z" fill="#2f3739" stroke="#2f3739"></path><path d="M627.3 288.7L684.5 231.7L609.8 267Z" fill="#272e30" stroke="#272e30"></path><path d="M675 530L675 505.3L640.5 530Z" fill="#272e30" stroke="#272e30"></path><path d="M686.5 397.3L684.5 403.3L694.3 382.3Z" fill="#31393c" stroke="#31393c"></path><path d="M675 530L640.5 530L675 532.7Z" fill="#272e30" stroke="#272e30"></path><path d="M206.5 782.3L245.5 733.7L181.3 682.3Z" fill="#31393c" stroke="#31393c"></path><path d="M312.5 794.7L313 788.7L279.5 755Z" fill="#30383b" stroke="#30383b"></path><path d="M534 122.7L501 118.7L517.8 152.3Z" fill="#272e30" stroke="#272e30"></path><path d="M493.8 124.7L483 94.3L471 118Z" fill="#2f3739" stroke="#2f3739"></path><path d="M471 118L440.8 86.7L426 113.7Z" fill="#2d3538" stroke="#2d3538"></path><path d="M577.5 164L518.8 172.3L560.3 201Z" fill="#2d3538" stroke="#2d3538"></path><path d="M142.3 111.3L95.8 175.3L192 169Z" fill="#293133" stroke="#293133"></path><path d="M684.5 403.3L677.3 439L687.3 472.3Z" fill="#262d2f" stroke="#262d2f"></path><path d="M677.3 439L684.5 403.3L675 431Z" fill="#293133" stroke="#293133"></path><path d="M404.8 761.3L454.8 753.3L458 746.3Z" fill="#31393c" stroke="#31393c"></path><path d="M496.5 749.7L503.8 741L476 722Z" fill="#293133" stroke="#293133"></path><path d="M280.5 67.3L260.8 84.7L299 90Z" fill="#2d3538" stroke="#2d3538"></path><path d="M299 90L260.8 84.7L271.3 107.3Z" fill="#31393c" stroke="#31393c"></path><path d="M0 456.3L0 517.7L42.5 486.7Z" fill="#272e30" stroke="#272e30"></path><path d="M687.3 472.3L677.3 439L675 473.3Z" fill="#293133" stroke="#293133"></path><path d="M684.5 403.3L686.5 397.3L675 365Z" fill="#282f31" stroke="#282f31"></path><path d="M0 517.7L0 519.7L50.8 525Z" fill="#30383b" stroke="#30383b"></path><path d="M43.5 681.7L101.3 684.7L103 673.3Z" fill="#2a3234" stroke="#2a3234"></path><path d="M103 673.3L101.3 684.7L133 663Z" fill="#31393c" stroke="#31393c"></path><path d="M43.5 681.7L103 673.3L75.5 635.7Z" fill="#2d3538" stroke="#2d3538"></path><path d="M46.3 623.7L77 607.7L32.8 570.3Z" fill="#293133" stroke="#293133"></path><path d="M37.5 623L46.3 623.7L32.8 570.3Z" fill="#262d2f" stroke="#262d2f"></path><path d="M313 788.7L335 739L279.5 755Z" fill="#262d2f" stroke="#262d2f"></path><path d="M472 767.3L472 756L454.8 753.3Z" fill="#31393c" stroke="#31393c"></path><path d="M675 505.3L687.3 472.3L675 473.3Z" fill="#272e30" stroke="#272e30"></path><path d="M675 532.7L640.5 530L661.3 591.7Z" fill="#272e30" stroke="#272e30"></path><path d="M675 505.3L675 530L687.3 472.3Z" fill="#2c3436" stroke="#2c3436"></path><path d="M694.3 296.3L675 319.3L675 346.7Z" fill="#293133" stroke="#293133"></path><path d="M675 346.7L675 319.3L626.8 344Z" fill="#2a3234" stroke="#2a3234"></path><path d="M675 319.3L671.3 307.7L626.8 344Z" fill="#293133" stroke="#293133"></path><path d="M483 94.3L440.8 86.7L471 118Z" fill="#262d2f" stroke="#262d2f"></path><path d="M340 53.3L280.5 67.3L299 90Z" fill="#262d2f" stroke="#262d2f"></path><path d="M661.3 591.7L640.5 530L634.3 588.7Z" fill="#262d2f" stroke="#262d2f"></path><path d="M675 530L675 532.7L687.3 472.3Z" fill="#31393c" stroke="#31393c"></path><path d="M595.5 181.3L573.3 231.3L608.5 176.3Z" fill="#2a3234" stroke="#2a3234"></path><path d="M608.5 176.3L573.3 231.3L609.8 267Z" fill="#2c3436" stroke="#2c3436"></path><path d="M0 519.7L0 540L50.8 525Z" fill="#2c3436" stroke="#2c3436"></path><path d="M472 756L458 746.3L459.8 749.7Z" fill="#2a3234" stroke="#2a3234"></path><path d="M454.8 753.3L472 756L459.8 749.7Z" fill="#272e30" stroke="#272e30"></path><path d="M472 767.3L454.8 753.3L444 785.7Z" fill="#2b3335" stroke="#2b3335"></path><path d="M577.5 164L553.3 140.7L518.8 172.3Z" fill="#2a3234" stroke="#2a3234"></path><path d="M501 118.7L483 94.3L493.8 124.7Z" fill="#2f3739" stroke="#2f3739"></path><path d="M208 91.7L264.3 138.7L261.3 102.3Z" fill="#2b3335" stroke="#2b3335"></path><path d="M176.8 120L142.3 111.3L192 169Z" fill="#262d2f" stroke="#262d2f"></path><path d="M239.8 74.3L208 91.7L261.3 102.3Z" fill="#30383b" stroke="#30383b"></path><path d="M0 600L37.5 623L32.8 570.3Z" fill="#2a3234" stroke="#2a3234"></path><path d="M46.3 623.7L34.3 650.3L75.5 635.7Z" fill="#2d3538" stroke="#2d3538"></path><path d="M675 626.7L652.3 598.3L626.5 606.7Z" fill="#272e30" stroke="#272e30"></path><path d="M626.5 606.7L652.3 598.3L630.8 592Z" fill="#2a3234" stroke="#2a3234"></path><path d="M686.5 397.3L694.3 382.3L675 365Z" fill="#2f3739" stroke="#2f3739"></path><path d="M687.3 472.3L694.3 382.3L684.5 403.3Z" fill="#2b3335" stroke="#2b3335"></path><path d="M346.8 791.3L373.8 783.3L357.5 777.3Z" fill="#2f3739" stroke="#2f3739"></path><path d="M357.5 777.3L373.8 783.3L360 739.7Z" fill="#2a3234" stroke="#2a3234"></path><path d="M553.3 140.7L534 122.7L517.8 152.3Z" fill="#2a3234" stroke="#2a3234"></path><path d="M472 767.3L496.5 749.7L472 756Z" fill="#262d2f" stroke="#262d2f"></path><path d="M472 756L496.5 749.7L476 722Z" fill="#293133" stroke="#293133"></path><path d="M603.5 692.7L606.8 671.3L573.8 678Z" fill="#2c3436" stroke="#2c3436"></path><path d="M0 282.3L0 295.7L25.8 283.3Z" fill="#272e30" stroke="#272e30"></path><path d="M25.8 283.3L0 295.7L33.3 316.3Z" fill="#262d2f" stroke="#262d2f"></path><path d="M505.8 99.3L483 94.3L501 118.7Z" fill="#30383b" stroke="#30383b"></path><path d="M340 53.3L299 90L338.8 86.7Z" fill="#2d3538" stroke="#2d3538"></path><path d="M260.8 84.7L239.8 74.3L261.3 102.3Z" fill="#2f3739" stroke="#2f3739"></path><path d="M595.5 181.3L594.3 168L577.5 164Z" fill="#2a3234" stroke="#2a3234"></path><path d="M577.5 164L577.8 142L553.3 140.7Z" fill="#2f3739" stroke="#2f3739"></path><path d="M553.3 140.7L555.3 95.3L534 122.7Z" fill="#262d2f" stroke="#262d2f"></path><path d="M608.5 176.3L594.3 168L595.5 181.3Z" fill="#2a3234" stroke="#2a3234"></path><path d="M675 626.7L661.3 591.7L652.3 598.3Z" fill="#2d3538" stroke="#2d3538"></path><path d="M652.3 598.3L661.3 591.7L634.3 588.7Z" fill="#2d3538" stroke="#2d3538"></path><path d="M312.5 794.7L279.5 755L227.3 794.3Z" fill="#282f31" stroke="#282f31"></path><path d="M280.5 67.3L239.8 74.3L260.8 84.7Z" fill="#272e30" stroke="#272e30"></path><path d="M142.3 111.3L176.8 120L152.8 78.3Z" fill="#2a3234" stroke="#2a3234"></path><path d="M694.3 296.3L675 287.3L671.3 307.7Z" fill="#282f31" stroke="#282f31"></path><path d="M671.3 307.7L675 287.3L627.3 288.7Z" fill="#272e30" stroke="#272e30"></path><path d="M694.3 296.3L671.3 307.7L675 319.3Z" fill="#30383b" stroke="#30383b"></path><path d="M568.3 671L511.3 663L566.5 731.7Z" fill="#293133" stroke="#293133"></path><path d="M573.8 678L606.8 671.3L568.3 671Z" fill="#2a3234" stroke="#2a3234"></path><path d="M313 788.7L346.8 791.3L357.5 777.3Z" fill="#2a3234" stroke="#2a3234"></path><path d="M444 785.7L454.8 753.3L404.8 761.3Z" fill="#262d2f" stroke="#262d2f"></path><path d="M0 228L25.8 283.3L83.8 240.7Z" fill="#262d2f" stroke="#262d2f"></path><path d="M555.3 95.3L505.8 99.3L534 122.7Z" fill="#2a3234" stroke="#2a3234"></path><path d="M534 122.7L505.8 99.3L501 118.7Z" fill="#30383b" stroke="#30383b"></path><path d="M-42.2 555.3L-2.5 565L0 540Z" fill="#262d2f" stroke="#262d2f"></path><path d="M0 540L-2.5 565L32.8 570.3Z" fill="#2d3538" stroke="#2d3538"></path><path d="M-42.2 555.3L0 540L0 519.7Z" fill="#293133" stroke="#293133"></path><path d="M-42.2 555.3L0 519.7L0 517.7Z" fill="#2f3739" stroke="#2f3739"></path><path d="M-42.2 555.3L0 517.7L0 456.3Z" fill="#272e30" stroke="#272e30"></path><path d="M-42.2 555.3L0 456.3L0 440.7Z" fill="#272e30" stroke="#272e30"></path><path d="M-42.2 555.3L0 440.7L0 391.3Z" fill="#2f3739" stroke="#2f3739"></path><path d="M-18.2 310.7L0 391.3L0 390Z" fill="#2b3335" stroke="#2b3335"></path><path d="M-18.2 310.7L33.3 316.3L0 295.7Z" fill="#2b3335" stroke="#2b3335"></path><path d="M444 785.7L404.8 761.3L426.3 812Z" fill="#2d3538" stroke="#2d3538"></path><path d="M566.5 731.7L511.3 663L503.8 741Z" fill="#30383b" stroke="#30383b"></path><path d="M675 193.3L608.5 176.3L609.8 267Z" fill="#2b3335" stroke="#2b3335"></path><path d="M594.3 168L577.8 142L577.5 164Z" fill="#2b3335" stroke="#2b3335"></path><path d="M93.5 721L136.5 735.7L101.3 684.7Z" fill="#2c3436" stroke="#2c3436"></path><path d="M101.3 684.7L136.5 735.7L133 663Z" fill="#31393c" stroke="#31393c"></path><path d="M227.3 794.3L279.5 755L248.8 759Z" fill="#272e30" stroke="#272e30"></path><path d="M147.3 81.3L142.3 111.3L152.8 78.3Z" fill="#2b3335" stroke="#2b3335"></path><path d="M95.8 175.3L31.5 187.7L83.8 240.7Z" fill="#272e30" stroke="#272e30"></path><path d="M168.3 68.7L201.3 95L208 91.7Z" fill="#31393c" stroke="#31393c"></path><path d="M227.3 794.3L248.8 759L245.8 760.7Z" fill="#272e30" stroke="#272e30"></path><path d="M313 788.7L312.5 794.7L346.8 791.3Z" fill="#2b3335" stroke="#2b3335"></path><path d="M620.5 151.7L577.8 142L594.3 168Z" fill="#2f3739" stroke="#2f3739"></path><path d="M450.3 59.3L340 53.3L440.8 86.7Z" fill="#2a3234" stroke="#2a3234"></path><path d="M440.8 86.7L340 53.3L392.5 112.7Z" fill="#2d3538" stroke="#2d3538"></path><path d="M282.8 31.3L225.3 66.7L239.8 74.3Z" fill="#30383b" stroke="#30383b"></path><path d="M465.5 72.7L440.8 86.7L483 94.3Z" fill="#2c3436" stroke="#2c3436"></path><path d="M99.3 108L80.3 154.7L95.8 175.3Z" fill="#2f3739" stroke="#2f3739"></path><path d="M-2.5 565L0 585.3L32.8 570.3Z" fill="#30383b" stroke="#30383b"></path><path d="M37.5 623L34.3 650.3L46.3 623.7Z" fill="#2a3234" stroke="#2a3234"></path><path d="M566.5 731.7L503.8 741L527.5 764Z" fill="#262d2f" stroke="#262d2f"></path><path d="M-27.2 194.7L-18.2 310.7L0 282.3Z" fill="#2f3739" stroke="#2f3739"></path><path d="M0 282.3L-18.2 310.7L0 295.7Z" fill="#2f3739" stroke="#2f3739"></path><path d="M450.3 59.3L465.5 72.7L500.8 27Z" fill="#2f3739" stroke="#2f3739"></path><path d="M500.8 27L465.5 72.7L483 94.3Z" fill="#2d3538" stroke="#2d3538"></path><path d="M426.3 812L373.8 783.3L364.3 828.7Z" fill="#272e30" stroke="#272e30"></path><path d="M426.3 812L404.8 761.3L373.8 783.3Z" fill="#2b3335" stroke="#2b3335"></path><path d="M527.5 764L503.8 741L496.5 749.7Z" fill="#272e30" stroke="#272e30"></path><path d="M282.8 31.3L239.8 74.3L280.5 67.3Z" fill="#30383b" stroke="#30383b"></path><path d="M239.8 74.3L225.3 66.7L208 91.7Z" fill="#30383b" stroke="#30383b"></path><path d="M581.5 708L603.5 692.7L573.8 678Z" fill="#293133" stroke="#293133"></path><path d="M606.8 671.3L675 626.7L626.5 606.7Z" fill="#30383b" stroke="#30383b"></path><path d="M21.5 645.3L34.3 650.3L37.5 623Z" fill="#282f31" stroke="#282f31"></path><path d="M694.3 382.3L694.3 296.3L675 346.7Z" fill="#2c3436" stroke="#2c3436"></path><path d="M675 193.3L620.5 151.7L608.5 176.3Z" fill="#2c3436" stroke="#2c3436"></path><path d="M-42.2 555.3L0 600L0 585.3Z" fill="#282f31" stroke="#282f31"></path><path d="M0 585.3L0 600L32.8 570.3Z" fill="#293133" stroke="#293133"></path><path d="M136.5 735.7L206.5 782.3L181.3 682.3Z" fill="#2f3739" stroke="#2f3739"></path><path d="M527.5 764L496.5 749.7L472 767.3Z" fill="#293133" stroke="#293133"></path><path d="M581.5 708L602.5 727.3L603.5 692.7Z" fill="#293133" stroke="#293133"></path><path d="M500.8 27L483 94.3L505.8 99.3Z" fill="#2c3436" stroke="#2c3436"></path><path d="M465.5 72.7L450.3 59.3L440.8 86.7Z" fill="#2d3538" stroke="#2d3538"></path><path d="M43.5 681.7L93.5 721L101.3 684.7Z" fill="#30383b" stroke="#30383b"></path><path d="M212.3 837.7L218 799L206.5 782.3Z" fill="#2c3436" stroke="#2c3436"></path><path d="M0 600L21.5 645.3L37.5 623Z" fill="#31393c" stroke="#31393c"></path><path d="M34.3 650.3L43.5 681.7L75.5 635.7Z" fill="#2c3436" stroke="#2c3436"></path><path d="M218 799L227.3 794.3L206.5 782.3Z" fill="#2d3538" stroke="#2d3538"></path><path d="M206.5 782.3L227.3 794.3L245.8 760.7Z" fill="#30383b" stroke="#30383b"></path><path d="M62.8 150L31.5 187.7L80.3 154.7Z" fill="#2d3538" stroke="#2d3538"></path><path d="M80.3 154.7L31.5 187.7L95.8 175.3Z" fill="#2a3234" stroke="#2a3234"></path><path d="M537.5 781.3L527.5 764L472 767.3Z" fill="#2c3436" stroke="#2c3436"></path><path d="M337.3 17.7L329.8 37L340 53.3Z" fill="#30383b" stroke="#30383b"></path><path d="M340 53.3L329.8 37L280.5 67.3Z" fill="#282f31" stroke="#282f31"></path><path d="M99.3 108L95.8 175.3L142.3 111.3Z" fill="#2c3436" stroke="#2c3436"></path><path d="M99.3 108L62.8 150L80.3 154.7Z" fill="#293133" stroke="#293133"></path><path d="M21.5 645.3L43.5 681.7L34.3 650.3Z" fill="#31393c" stroke="#31393c"></path><path d="M31.5 187.7L0 228L83.8 240.7Z" fill="#282f31" stroke="#282f31"></path><path d="M31.5 187.7L0 227.7L0 228Z" fill="#2b3335" stroke="#2b3335"></path><path d="M0 228L-27.2 194.7L0 282.3Z" fill="#282f31" stroke="#282f31"></path><path d="M133.5 806L206.5 782.3L136.5 735.7Z" fill="#262d2f" stroke="#262d2f"></path><path d="M306.3 871L340 822.3L312.5 794.7Z" fill="#272e30" stroke="#272e30"></path><path d="M650.8 688.7L675 626.7L606.8 671.3Z" fill="#262d2f" stroke="#262d2f"></path><path d="M661.3 591.7L675 626.7L675 532.7Z" fill="#282f31" stroke="#282f31"></path><path d="M675 532.7L675 626.7L687.3 472.3Z" fill="#272e30" stroke="#272e30"></path><path d="M650.8 688.7L606.8 671.3L603.5 692.7Z" fill="#282f31" stroke="#282f31"></path><path d="M176.8 120L201.3 95L168.3 68.7Z" fill="#282f31" stroke="#282f31"></path><path d="M152.8 78.3L176.8 120L168.3 68.7Z" fill="#2d3538" stroke="#2d3538"></path><path d="M168.3 68.7L208 91.7L225.3 66.7Z" fill="#2c3436" stroke="#2c3436"></path><path d="M608.5 176.3L620.5 151.7L594.3 168Z" fill="#2d3538" stroke="#2d3538"></path><path d="M577.8 142L555.3 95.3L553.3 140.7Z" fill="#31393c" stroke="#31393c"></path><path d="M684.5 231.7L627.3 288.7L675 287.3Z" fill="#272e30" stroke="#272e30"></path><path d="M179.5 37L168.3 68.7L225.3 66.7Z" fill="#2f3739" stroke="#2f3739"></path><path d="M135.5 40L121 72.7L147.3 81.3Z" fill="#31393c" stroke="#31393c"></path><path d="M93.8 742.3L108.8 748L93.5 721Z" fill="#2f3739" stroke="#2f3739"></path><path d="M93.5 721L108.8 748L136.5 735.7Z" fill="#31393c" stroke="#31393c"></path><path d="M556.5 90.7L555.3 95.3L602.8 118.3Z" fill="#31393c" stroke="#31393c"></path><path d="M364.3 828.7L373.8 783.3L346.8 791.3Z" fill="#262d2f" stroke="#262d2f"></path><path d="M444 785.7L487.3 829.7L472 767.3Z" fill="#30383b" stroke="#30383b"></path><path d="M340 822.3L346.8 791.3L312.5 794.7Z" fill="#272e30" stroke="#272e30"></path><path d="M121 72.7L99.3 108L142.3 111.3Z" fill="#272e30" stroke="#272e30"></path><path d="M121 72.7L142.3 111.3L147.3 81.3Z" fill="#272e30" stroke="#272e30"></path><path d="M223.8 810.7L312.5 794.7L227.3 794.3Z" fill="#30383b" stroke="#30383b"></path><path d="M15.5 129.3L47.5 154L62.8 150Z" fill="#2b3335" stroke="#2b3335"></path><path d="M62.8 150L47.5 154L31.5 187.7Z" fill="#262d2f" stroke="#262d2f"></path><path d="M31.5 187.7L0 210.3L0 227.7Z" fill="#282f31" stroke="#282f31"></path><path d="M694.3 296.3L684.5 231.7L675 287.3Z" fill="#272e30" stroke="#272e30"></path><path d="M329.8 37L282.8 31.3L280.5 67.3Z" fill="#2d3538" stroke="#2d3538"></path><path d="M83.8 738.7L93.8 742.3L93.5 721Z" fill="#2f3739" stroke="#2f3739"></path><path d="M212.3 837.7L223.8 810.7L218 799Z" fill="#30383b" stroke="#30383b"></path><path d="M602.8 118.3L555.3 95.3L577.8 142Z" fill="#282f31" stroke="#282f31"></path><path d="M555.3 95.3L556.5 90.7L505.8 99.3Z" fill="#31393c" stroke="#31393c"></path><path d="M0.5 191.7L0 210.3L31.5 187.7Z" fill="#2a3234" stroke="#2a3234"></path><path d="M0 227.7L-27.2 194.7L0 228Z" fill="#282f31" stroke="#282f31"></path><path d="M-18.2 310.7L-42.2 555.3L0 391.3Z" fill="#293133" stroke="#293133"></path><path d="M-2.5 565L-42.2 555.3L0 585.3Z" fill="#272e30" stroke="#272e30"></path><path d="M-25.2 739.7L0 726.7L21.5 645.3Z" fill="#2c3436" stroke="#2c3436"></path><path d="M35.3 731L93.5 721L43.5 681.7Z" fill="#262d2f" stroke="#262d2f"></path><path d="M212.3 837.7L206.5 782.3L139 831.3Z" fill="#2c3436" stroke="#2c3436"></path><path d="M218 799L223.8 810.7L227.3 794.3Z" fill="#2f3739" stroke="#2f3739"></path><path d="M565.3 768.3L602.5 727.3L566.5 731.7Z" fill="#282f31" stroke="#282f31"></path><path d="M566.5 731.7L602.5 727.3L581.5 708Z" fill="#2b3335" stroke="#2b3335"></path><path d="M35.3 731L83.8 738.7L93.5 721Z" fill="#2b3335" stroke="#2b3335"></path><path d="M93.8 742.3L77.5 766.3L108.8 748Z" fill="#2b3335" stroke="#2b3335"></path><path d="M364.3 828.7L430.3 818.3L426.3 812Z" fill="#31393c" stroke="#31393c"></path><path d="M426.3 812L430.3 818.3L444 785.7Z" fill="#31393c" stroke="#31393c"></path><path d="M527.5 764L565.3 768.3L566.5 731.7Z" fill="#2b3335" stroke="#2b3335"></path><path d="M321.8 886.7L364.3 828.7L340 822.3Z" fill="#31393c" stroke="#31393c"></path><path d="M340 822.3L364.3 828.7L346.8 791.3Z" fill="#31393c" stroke="#31393c"></path><path d="M675 123L602.8 118.3L620.5 151.7Z" fill="#2a3234" stroke="#2a3234"></path><path d="M620.5 151.7L602.8 118.3L577.8 142Z" fill="#272e30" stroke="#272e30"></path><path d="M364.8 0L337.3 17.7L340 53.3Z" fill="#2c3436" stroke="#2c3436"></path><path d="M329.8 37L307.3 17.3L282.8 31.3Z" fill="#2c3436" stroke="#2c3436"></path><path d="M324 0L337.3 17.7L364.8 0Z" fill="#282f31" stroke="#282f31"></path><path d="M487.3 829.7L537.5 781.3L472 767.3Z" fill="#30383b" stroke="#30383b"></path><path d="M337.3 17.7L307.3 17.3L329.8 37Z" fill="#2b3335" stroke="#2b3335"></path><path d="M135.5 40L152.8 78.3L168.3 68.7Z" fill="#262d2f" stroke="#262d2f"></path><path d="M675 695.7L650.8 688.7L675 700.7Z" fill="#2c3436" stroke="#2c3436"></path><path d="M602.5 727.3L650.8 688.7L603.5 692.7Z" fill="#30383b" stroke="#30383b"></path><path d="M684.5 231.7L675 193.3L609.8 267Z" fill="#2a3234" stroke="#2a3234"></path><path d="M0 172L0.5 191.7L31.5 187.7Z" fill="#2f3739" stroke="#2f3739"></path><path d="M0 210.3L-27.2 194.7L0 227.7Z" fill="#2a3234" stroke="#2a3234"></path><path d="M0 172L31.5 187.7L47.5 154Z" fill="#31393c" stroke="#31393c"></path><path d="M537.5 781.3L565.3 768.3L527.5 764Z" fill="#272e30" stroke="#272e30"></path><path d="M135.5 40L147.3 81.3L152.8 78.3Z" fill="#2d3538" stroke="#2d3538"></path><path d="M0 149.3L0 172L47.5 154Z" fill="#262d2f" stroke="#262d2f"></path><path d="M179.5 37L225.3 66.7L220 12.7Z" fill="#2b3335" stroke="#2b3335"></path><path d="M602.8 118.3L563.5 76.3L556.5 90.7Z" fill="#272e30" stroke="#272e30"></path><path d="M556.5 90.7L544 35L505.8 99.3Z" fill="#2f3739" stroke="#2f3739"></path><path d="M544 35L563.5 76.3L573.3 37.7Z" fill="#272e30" stroke="#272e30"></path><path d="M220 12.7L225.3 66.7L282.8 31.3Z" fill="#2c3436" stroke="#2c3436"></path><path d="M15.5 129.3L62.8 150L99.3 108Z" fill="#30383b" stroke="#30383b"></path><path d="M0.5 191.7L-16.2 189L0 210.3Z" fill="#31393c" stroke="#31393c"></path><path d="M0 172L-16.2 189L0.5 191.7Z" fill="#2c3436" stroke="#2c3436"></path><path d="M-18.2 310.7L-27.2 194.7L-42.2 555.3Z" fill="#30383b" stroke="#30383b"></path><path d="M364.8 0L340 53.3L412.3 0Z" fill="#2b3335" stroke="#2b3335"></path><path d="M337.3 17.7L324 0L307.3 17.3Z" fill="#31393c" stroke="#31393c"></path><path d="M307.3 17.3L301.8 0L282.8 31.3Z" fill="#30383b" stroke="#30383b"></path><path d="M412.3 0L340 53.3L450.3 59.3Z" fill="#2f3739" stroke="#2f3739"></path><path d="M324 0L301.8 0L307.3 17.3Z" fill="#272e30" stroke="#272e30"></path><path d="M92.8 68.7L95 73.3L121 72.7Z" fill="#293133" stroke="#293133"></path><path d="M121 72.7L95 73.3L99.3 108Z" fill="#31393c" stroke="#31393c"></path><path d="M35.3 731L77.5 766.3L83.8 738.7Z" fill="#282f31" stroke="#282f31"></path><path d="M83.8 738.7L77.5 766.3L93.8 742.3Z" fill="#282f31" stroke="#282f31"></path><path d="M35.3 731L43.5 681.7L0 726.7Z" fill="#31393c" stroke="#31393c"></path><path d="M252.3 0L220 12.7L282.8 31.3Z" fill="#272e30" stroke="#272e30"></path><path d="M135.5 40L92.8 68.7L121 72.7Z" fill="#282f31" stroke="#282f31"></path><path d="M0 726.7L43.5 681.7L21.5 645.3Z" fill="#31393c" stroke="#31393c"></path><path d="M544 35L500.8 27L505.8 99.3Z" fill="#2a3234" stroke="#2a3234"></path><path d="M133.5 806L136.5 735.7L108.8 748Z" fill="#2d3538" stroke="#2d3538"></path><path d="M223.8 810.7L249 860.7L312.5 794.7Z" fill="#282f31" stroke="#282f31"></path><path d="M511.8 845.7L487.3 829.7L492.8 861.3Z" fill="#282f31" stroke="#282f31"></path><path d="M430.3 818.3L487.3 829.7L444 785.7Z" fill="#2f3739" stroke="#2f3739"></path><path d="M537.5 781.3L568.3 790.3L565.3 768.3Z" fill="#2f3739" stroke="#2f3739"></path><path d="M509.8 831L487.3 829.7L511.8 845.7Z" fill="#2b3335" stroke="#2b3335"></path><path d="M0 149.3L-16.2 189L0 172Z" fill="#30383b" stroke="#30383b"></path><path d="M0 149.3L-27.2 194.7L-16.2 189Z" fill="#282f31" stroke="#282f31"></path><path d="M-16.2 189L-27.2 194.7L0 210.3Z" fill="#272e30" stroke="#272e30"></path><path d="M129.5 809.7L133.5 806L80.5 795.3Z" fill="#2f3739" stroke="#2f3739"></path><path d="M565.3 794.3L568.3 790.3L537.5 781.3Z" fill="#2c3436" stroke="#2c3436"></path><path d="M565.3 768.3L627.3 764.7L602.5 727.3Z" fill="#282f31" stroke="#282f31"></path><path d="M429.3 -5.3L412.3 0L450.3 59.3Z" fill="#262d2f" stroke="#262d2f"></path><path d="M675 700.7L650.8 688.7L675 706.3Z" fill="#30383b" stroke="#30383b"></path><path d="M650.8 688.7L675 695.7L675 626.7Z" fill="#31393c" stroke="#31393c"></path><path d="M675 626.7L675 695.7L687.3 472.3Z" fill="#2a3234" stroke="#2a3234"></path><path d="M687.3 472.3L679.3 858L694.3 382.3Z" fill="#30383b" stroke="#30383b"></path><path d="M135.5 40L168.3 68.7L179.5 37Z" fill="#293133" stroke="#293133"></path><path d="M95 73.3L15.5 129.3L99.3 108Z" fill="#2f3739" stroke="#2f3739"></path><path d="M301.8 0L256.5 0L282.8 31.3Z" fill="#30383b" stroke="#30383b"></path><path d="M550 809.7L565.3 794.3L537.5 781.3Z" fill="#262d2f" stroke="#262d2f"></path><path d="M675 706.3L650.8 688.7L675 717Z" fill="#2a3234" stroke="#2a3234"></path><path d="M256.5 0L252.3 0L282.8 31.3Z" fill="#282f31" stroke="#282f31"></path><path d="M197.5 -14.3L179.5 37L220 12.7Z" fill="#2f3739" stroke="#2f3739"></path><path d="M150.5 0L135.5 40L179.5 37Z" fill="#31393c" stroke="#31393c"></path><path d="M650.8 688.7L675 719.3L675 717Z" fill="#30383b" stroke="#30383b"></path><path d="M675 695.7L675 700.7L687.3 472.3Z" fill="#2a3234" stroke="#2a3234"></path><path d="M4.8 140.7L0 149.3L47.5 154Z" fill="#2c3436" stroke="#2c3436"></path><path d="M80.5 795.3L133.5 806L108.8 748Z" fill="#2b3335" stroke="#2b3335"></path><path d="M133.5 806L139 831.3L206.5 782.3Z" fill="#262d2f" stroke="#262d2f"></path><path d="M252.3 0L231.5 1.3L220 12.7Z" fill="#293133" stroke="#293133"></path><path d="M92.8 68.7L15.5 129.3L95 73.3Z" fill="#2f3739" stroke="#2f3739"></path><path d="M15.5 129.3L4.8 140.7L47.5 154Z" fill="#272e30" stroke="#272e30"></path><path d="M0 149.3L0 114.7L-27.2 194.7Z" fill="#30383b" stroke="#30383b"></path><path d="M252.3 0L231.8 0L231.5 1.3Z" fill="#272e30" stroke="#272e30"></path><path d="M231.5 1.3L231.8 0L220 12.7Z" fill="#272e30" stroke="#272e30"></path><path d="M509.8 831L550 809.7L537.5 781.3Z" fill="#2c3436" stroke="#2c3436"></path><path d="M627.3 764.7L565.3 768.3L568.3 790.3Z" fill="#2b3335" stroke="#2b3335"></path><path d="M572 804L568.3 790.3L565.3 794.3Z" fill="#2a3234" stroke="#2a3234"></path><path d="M675 700.7L675 706.3L687.3 472.3Z" fill="#31393c" stroke="#31393c"></path><path d="M466 0L429.3 -5.3L450.3 59.3Z" fill="#2a3234" stroke="#2a3234"></path><path d="M412.3 0L418 -45.7L364.8 0Z" fill="#2b3335" stroke="#2b3335"></path><path d="M418 -45.7L266.5 -14.7L324 0Z" fill="#30383b" stroke="#30383b"></path><path d="M324 0L266.5 -14.7L301.8 0Z" fill="#2b3335" stroke="#2b3335"></path><path d="M301.8 0L266.5 -14.7L256.5 0Z" fill="#262d2f" stroke="#262d2f"></path><path d="M256.5 0L266.5 -14.7L252.3 0Z" fill="#2c3436" stroke="#2c3436"></path><path d="M252.3 0L266.5 -14.7L231.8 0Z" fill="#2d3538" stroke="#2d3538"></path><path d="M487.3 829.7L509.8 831L537.5 781.3Z" fill="#262d2f" stroke="#262d2f"></path><path d="M431.8 876.7L430.3 818.3L364.3 828.7Z" fill="#2b3335" stroke="#2b3335"></path><path d="M684.5 231.7L688.3 157.3L675 193.3Z" fill="#282f31" stroke="#282f31"></path><path d="M675 193.3L688.3 157.3L620.5 151.7Z" fill="#262d2f" stroke="#262d2f"></path><path d="M563.5 76.3L544 35L556.5 90.7Z" fill="#2f3739" stroke="#2f3739"></path><path d="M711.3 117.7L688.3 157.3L684.5 231.7Z" fill="#2b3335" stroke="#2b3335"></path><path d="M573.3 37.7L563.5 76.3L602.8 118.3Z" fill="#30383b" stroke="#30383b"></path><path d="M500.8 27L466 0L450.3 59.3Z" fill="#30383b" stroke="#30383b"></path><path d="M604.3 862.7L559.5 808L550 809.7Z" fill="#2b3335" stroke="#2b3335"></path><path d="M550 809.7L559.5 808L565.3 794.3Z" fill="#2b3335" stroke="#2b3335"></path><path d="M260 870.3L249 860.7L230 900Z" fill="#282f31" stroke="#282f31"></path><path d="M212.3 837.7L249 860.7L223.8 810.7Z" fill="#2c3436" stroke="#2c3436"></path><path d="M473.5 0L466 0L500.8 27Z" fill="#2b3335" stroke="#2b3335"></path><path d="M544 35L522.8 21L500.8 27Z" fill="#31393c" stroke="#31393c"></path><path d="M688.3 157.3L675 135L620.5 151.7Z" fill="#2f3739" stroke="#2f3739"></path><path d="M614 813.3L572 804L604.3 862.7Z" fill="#2d3538" stroke="#2d3538"></path><path d="M559.5 808L572 804L565.3 794.3Z" fill="#2f3739" stroke="#2f3739"></path><path d="M418 -45.7L324 0L364.8 0Z" fill="#2b3335" stroke="#2b3335"></path><path d="M231.8 0L197.5 -14.3L220 12.7Z" fill="#2f3739" stroke="#2f3739"></path><path d="M675 719.3L650.8 688.7L602.5 727.3Z" fill="#2c3436" stroke="#2c3436"></path><path d="M675 706.3L675 717L687.3 472.3Z" fill="#2f3739" stroke="#2f3739"></path><path d="M614 813.3L627.3 764.7L568.3 790.3Z" fill="#2c3436" stroke="#2c3436"></path><path d="M466 0L438.5 -38.7L429.3 -5.3Z" fill="#293133" stroke="#293133"></path><path d="M477 0L473.5 0L500.8 27Z" fill="#2b3335" stroke="#2b3335"></path><path d="M249 860.7L306.3 871L312.5 794.7Z" fill="#2c3436" stroke="#2c3436"></path><path d="M627.3 764.7L675 719.3L602.5 727.3Z" fill="#282f31" stroke="#282f31"></path><path d="M675 717L679.3 858L687.3 472.3Z" fill="#2f3739" stroke="#2f3739"></path><path d="M488.3 0L477 0L500.8 27Z" fill="#2c3436" stroke="#2c3436"></path><path d="M443.3 -47.7L438.5 -38.7L493.8 -36.7Z" fill="#31393c" stroke="#31393c"></path><path d="M43.3 773L80.5 795.3L77.5 766.3Z" fill="#2c3436" stroke="#2c3436"></path><path d="M77.5 766.3L80.5 795.3L108.8 748Z" fill="#272e30" stroke="#272e30"></path><path d="M192 882.7L249 860.7L212.3 837.7Z" fill="#31393c" stroke="#31393c"></path><path d="M522.8 21L488.3 0L500.8 27Z" fill="#2d3538" stroke="#2d3538"></path><path d="M438.5 -38.7L466 0L493.8 -36.7Z" fill="#262d2f" stroke="#262d2f"></path><path d="M139 831.3L133.5 806L129.5 809.7Z" fill="#30383b" stroke="#30383b"></path><path d="M249 860.7L260 870.3L306.3 871Z" fill="#31393c" stroke="#31393c"></path><path d="M94.5 830.7L139 831.3L129.5 809.7Z" fill="#262d2f" stroke="#262d2f"></path><path d="M-25.2 739.7L21.5 645.3L0 600Z" fill="#262d2f" stroke="#262d2f"></path><path d="M35.3 731L43.3 773L77.5 766.3Z" fill="#2a3234" stroke="#2a3234"></path><path d="M711.3 117.7L675 123L675 135Z" fill="#2d3538" stroke="#2d3538"></path><path d="M675 135L675 123L620.5 151.7Z" fill="#282f31" stroke="#282f31"></path><path d="M-25.2 739.7L0 728L0 726.7Z" fill="#262d2f" stroke="#262d2f"></path><path d="M0 726.7L0 728L35.3 731Z" fill="#2c3436" stroke="#2c3436"></path><path d="M544 35L544.8 0L522.8 21Z" fill="#293133" stroke="#293133"></path><path d="M522.8 21L525 -15.7L488.3 0Z" fill="#31393c" stroke="#31393c"></path><path d="M667.5 74L573.3 37.7L602.8 118.3Z" fill="#2c3436" stroke="#2c3436"></path><path d="M509.8 831L511.8 845.7L550 809.7Z" fill="#31393c" stroke="#31393c"></path><path d="M431.8 876.7L487.3 829.7L430.3 818.3Z" fill="#272e30" stroke="#272e30"></path><path d="M0 771L43.3 773L35.3 731Z" fill="#31393c" stroke="#31393c"></path><path d="M80.5 795.3L94.5 830.7L129.5 809.7Z" fill="#293133" stroke="#293133"></path><path d="M0 104L0 114.7L15.5 129.3Z" fill="#2d3538" stroke="#2d3538"></path><path d="M15.5 129.3L0 114.7L4.8 140.7Z" fill="#262d2f" stroke="#262d2f"></path><path d="M4.8 140.7L0 114.7L0 149.3Z" fill="#30383b" stroke="#30383b"></path><path d="M0 104L15.5 129.3L16.8 54.3Z" fill="#2d3538" stroke="#2d3538"></path><path d="M321.8 886.7L340 822.3L306.3 871Z" fill="#30383b" stroke="#30383b"></path><path d="M407.5 900L431.8 876.7L364.3 828.7Z" fill="#272e30" stroke="#272e30"></path><path d="M266.5 -14.7L197.5 -14.3L231.8 0Z" fill="#262d2f" stroke="#262d2f"></path><path d="M135.5 40L104.8 21.3L92.8 68.7Z" fill="#293133" stroke="#293133"></path><path d="M308.3 891.7L321.8 886.7L306.3 871Z" fill="#30383b" stroke="#30383b"></path><path d="M431.8 876.7L492.8 861.3L487.3 829.7Z" fill="#2d3538" stroke="#2d3538"></path><path d="M604.3 862.7L572 804L559.5 808Z" fill="#2d3538" stroke="#2d3538"></path><path d="M572 804L614 813.3L568.3 790.3Z" fill="#2d3538" stroke="#2d3538"></path><path d="M197.5 -14.3L150.5 0L179.5 37Z" fill="#272e30" stroke="#272e30"></path><path d="M16.8 54.3L15.5 129.3L92.8 68.7Z" fill="#2f3739" stroke="#2f3739"></path><path d="M0 114.7L0 104L-27.2 194.7Z" fill="#2c3436" stroke="#2c3436"></path><path d="M109 0L104.8 21.3L135.5 40Z" fill="#2d3538" stroke="#2d3538"></path><path d="M285.5 890.7L306.3 871L260 870.3Z" fill="#262d2f" stroke="#262d2f"></path><path d="M285.5 890.7L308.3 891.7L306.3 871Z" fill="#2f3739" stroke="#2f3739"></path><path d="M321.8 886.7L407.5 900L364.3 828.7Z" fill="#2c3436" stroke="#2c3436"></path><path d="M290.3 900L285.5 890.7L230 900Z" fill="#262d2f" stroke="#262d2f"></path><path d="M197.5 -14.3L153 -8.7L150.5 0Z" fill="#262d2f" stroke="#262d2f"></path><path d="M150.5 0L109 0L135.5 40Z" fill="#31393c" stroke="#31393c"></path><path d="M60 813L80.5 795.3L43.3 773Z" fill="#272e30" stroke="#272e30"></path><path d="M60 813L94.5 830.7L80.5 795.3Z" fill="#2b3335" stroke="#2b3335"></path><path d="M230 900L285.5 890.7L260 870.3Z" fill="#282f31" stroke="#282f31"></path><path d="M572.3 0L544 35L573.3 37.7Z" fill="#30383b" stroke="#30383b"></path><path d="M572.3 0L544.8 0L544 35Z" fill="#30383b" stroke="#30383b"></path><path d="M466 0L473.5 0L493.8 -36.7Z" fill="#2c3436" stroke="#2c3436"></path><path d="M429.3 -5.3L418 -45.7L412.3 0Z" fill="#262d2f" stroke="#262d2f"></path><path d="M473.5 0L477 0L493.8 -36.7Z" fill="#31393c" stroke="#31393c"></path><path d="M266.5 -14.7L418 -45.7L197.5 -14.3Z" fill="#2f3739" stroke="#2f3739"></path><path d="M297.3 900L318.8 900L308.3 891.7Z" fill="#2b3335" stroke="#2b3335"></path><path d="M308.3 891.7L318.8 900L321.8 886.7Z" fill="#2a3234" stroke="#2a3234"></path><path d="M290.3 900L297.3 900L285.5 890.7Z" fill="#2c3436" stroke="#2c3436"></path><path d="M285.5 890.7L297.3 900L308.3 891.7Z" fill="#282f31" stroke="#282f31"></path><path d="M604.3 862.7L550 809.7L569.3 900Z" fill="#2d3538" stroke="#2d3538"></path><path d="M627.3 764.7L675 781L675 719.3Z" fill="#2f3739" stroke="#2f3739"></path><path d="M18.8 795L60 813L43.3 773Z" fill="#2b3335" stroke="#2b3335"></path><path d="M145.3 863.3L212.3 837.7L139 831.3Z" fill="#2a3234" stroke="#2a3234"></path><path d="M711.3 117.7L675 87.7L675 123Z" fill="#2f3739" stroke="#2f3739"></path><path d="M675 123L675 87.7L602.8 118.3Z" fill="#2a3234" stroke="#2a3234"></path><path d="M438.5 -38.7L418 -45.7L429.3 -5.3Z" fill="#2c3436" stroke="#2c3436"></path><path d="M55.5 0L68.8 0L46.5 -29.7Z" fill="#293133" stroke="#293133"></path><path d="M117.3 900L145.3 863.3L94.5 830.7Z" fill="#31393c" stroke="#31393c"></path><path d="M94.5 830.7L145.3 863.3L139 831.3Z" fill="#293133" stroke="#293133"></path><path d="M580.8 -10.3L525 -15.7L544.8 0Z" fill="#272e30" stroke="#272e30"></path><path d="M544.8 0L525 -15.7L522.8 21Z" fill="#2c3436" stroke="#2c3436"></path><path d="M438.5 -38.7L443.3 -47.7L418 -45.7Z" fill="#2a3234" stroke="#2a3234"></path><path d="M431.8 876.7L458 900L492.8 861.3Z" fill="#272e30" stroke="#272e30"></path><path d="M492.8 861.3L498.5 886.3L511.8 845.7Z" fill="#2b3335" stroke="#2b3335"></path><path d="M318.8 900L407.5 900L321.8 886.7Z" fill="#293133" stroke="#293133"></path><path d="M180.8 884.3L192 882.7L212.3 837.7Z" fill="#272e30" stroke="#272e30"></path><path d="M-42.2 555.3L-25.2 739.7L0 600Z" fill="#2a3234" stroke="#2a3234"></path><path d="M0 728L0 771L35.3 731Z" fill="#2b3335" stroke="#2b3335"></path><path d="M415.8 900L411.5 900.3L449.5 936.7Z" fill="#2d3538" stroke="#2d3538"></path><path d="M407.5 900L411.5 900.3L431.8 876.7Z" fill="#293133" stroke="#293133"></path><path d="M411.5 900.3L407.5 900L449.5 936.7Z" fill="#2f3739" stroke="#2f3739"></path><path d="M407.5 900L318.8 900L449.5 936.7Z" fill="#272e30" stroke="#272e30"></path><path d="M411.5 900.3L415.8 900L431.8 876.7Z" fill="#2d3538" stroke="#2d3538"></path><path d="M675 87.7L667.5 74L602.8 118.3Z" fill="#293133" stroke="#293133"></path><path d="M717.3 57.3L675 80.7L675 87.7Z" fill="#2d3538" stroke="#2d3538"></path><path d="M675 87.7L675 80.7L667.5 74Z" fill="#2d3538" stroke="#2d3538"></path><path d="M153 -8.7L109 0L150.5 0Z" fill="#2d3538" stroke="#2d3538"></path><path d="M44.5 16.7L16.8 54.3L92.8 68.7Z" fill="#282f31" stroke="#282f31"></path><path d="M-25.2 739.7L0 771L0 728Z" fill="#30383b" stroke="#30383b"></path><path d="M694.3 296.3L711.3 117.7L684.5 231.7Z" fill="#2b3335" stroke="#2b3335"></path><path d="M688.3 157.3L711.3 117.7L675 135Z" fill="#293133" stroke="#293133"></path><path d="M694.3 382.3L711.3 117.7L694.3 296.3Z" fill="#2a3234" stroke="#2a3234"></path><path d="M717.3 57.3L711.3 117.7L694.3 382.3Z" fill="#2f3739" stroke="#2f3739"></path><path d="M493.8 -36.7L477 0L488.3 0Z" fill="#2a3234" stroke="#2a3234"></path><path d="M164.8 900L180.8 884.3L145.3 863.3Z" fill="#282f31" stroke="#282f31"></path><path d="M145.3 863.3L180.8 884.3L212.3 837.7Z" fill="#2a3234" stroke="#2a3234"></path><path d="M219.5 900L230 900L249 860.7Z" fill="#272e30" stroke="#272e30"></path><path d="M580.8 -10.3L572.3 0L573.3 37.7Z" fill="#262d2f" stroke="#262d2f"></path><path d="M525 -15.7L493.8 -36.7L488.3 0Z" fill="#2a3234" stroke="#2a3234"></path><path d="M219.5 900L249 860.7L192 882.7Z" fill="#293133" stroke="#293133"></path><path d="M449.5 936.7L318.8 900L162.3 946.7Z" fill="#2a3234" stroke="#2a3234"></path><path d="M458 932.7L448.3 900L449.5 936.7Z" fill="#2a3234" stroke="#2a3234"></path><path d="M415.8 900L448.3 900L431.8 876.7Z" fill="#2c3436" stroke="#2c3436"></path><path d="M580.8 -10.3L493.8 -36.7L525 -15.7Z" fill="#262d2f" stroke="#262d2f"></path><path d="M0 771L18.8 795L43.3 773Z" fill="#2a3234" stroke="#2a3234"></path><path d="M60 813L55 829.7L94.5 830.7Z" fill="#2d3538" stroke="#2d3538"></path><path d="M0 781.3L18.8 795L0 771Z" fill="#262d2f" stroke="#262d2f"></path><path d="M478.5 900L498.5 886.3L492.8 861.3Z" fill="#272e30" stroke="#272e30"></path><path d="M174.8 911.7L219.5 900L192 882.7Z" fill="#2c3436" stroke="#2c3436"></path><path d="M230 900L162.3 946.7L290.3 900Z" fill="#2f3739" stroke="#2f3739"></path><path d="M46.5 -29.7L95.3 0L109 0Z" fill="#293133" stroke="#293133"></path><path d="M109 0L95.3 0L104.8 21.3Z" fill="#282f31" stroke="#282f31"></path><path d="M458 932.7L458 900L448.3 900Z" fill="#2d3538" stroke="#2d3538"></path><path d="M448.3 900L458 900L431.8 876.7Z" fill="#2a3234" stroke="#2a3234"></path><path d="M663.3 798.3L675 781L627.3 764.7Z" fill="#2c3436" stroke="#2c3436"></path><path d="M675 719.3L679.3 858L675 717Z" fill="#2c3436" stroke="#2c3436"></path><path d="M663.3 798.3L627.3 764.7L614 813.3Z" fill="#2c3436" stroke="#2c3436"></path><path d="M44.5 16.7L92.8 68.7L104.8 21.3Z" fill="#2f3739" stroke="#2f3739"></path><path d="M-25.2 739.7L0 781.3L0 771Z" fill="#2c3436" stroke="#2c3436"></path><path d="M0 835.7L55 829.7L18.8 795Z" fill="#2f3739" stroke="#2f3739"></path><path d="M18.8 795L55 829.7L60 813Z" fill="#2a3234" stroke="#2a3234"></path><path d="M458 900L478.5 900L492.8 861.3Z" fill="#2a3234" stroke="#2a3234"></path><path d="M675 821.7L663.3 798.3L614 813.3Z" fill="#2d3538" stroke="#2d3538"></path><path d="M458 932.7L478.5 900L458 900Z" fill="#30383b" stroke="#30383b"></path><path d="M550 809.7L511.8 845.7L569.3 900Z" fill="#31393c" stroke="#31393c"></path><path d="M0 0L0 61.3L16.8 54.3Z" fill="#2f3739" stroke="#2f3739"></path><path d="M16.8 54.3L0 61.3L0 104Z" fill="#2f3739" stroke="#2f3739"></path><path d="M0 104L0 61.3L-27.2 194.7Z" fill="#2d3538" stroke="#2d3538"></path><path d="M662.5 0L580.8 -10.3L573.3 37.7Z" fill="#2c3436" stroke="#2c3436"></path><path d="M572.3 0L580.8 -10.3L544.8 0Z" fill="#262d2f" stroke="#262d2f"></path><path d="M675 35.3L573.3 37.7L667.5 74Z" fill="#2f3739" stroke="#2f3739"></path><path d="M68.8 0L44.5 16.7L104.8 21.3Z" fill="#2f3739" stroke="#2f3739"></path><path d="M46.5 -29.7L68.8 0L95.3 0Z" fill="#2d3538" stroke="#2d3538"></path><path d="M95.3 0L68.8 0L104.8 21.3Z" fill="#2d3538" stroke="#2d3538"></path><path d="M109 0L153 -8.7L46.5 -29.7Z" fill="#262d2f" stroke="#262d2f"></path><path d="M117.3 900L164.8 900L145.3 863.3Z" fill="#2c3436" stroke="#2c3436"></path><path d="M180.8 884.3L174.8 911.7L192 882.7Z" fill="#2a3234" stroke="#2a3234"></path><path d="M219.5 900L162.3 946.7L230 900Z" fill="#30383b" stroke="#30383b"></path><path d="M46.5 -29.7L153 -8.7L197.5 -14.3Z" fill="#2c3436" stroke="#2c3436"></path><path d="M68.8 0L55.5 0L44.5 16.7Z" fill="#2c3436" stroke="#2c3436"></path><path d="M44.5 16.7L0 0L16.8 54.3Z" fill="#31393c" stroke="#31393c"></path><path d="M532 900L511.8 845.7L498.5 886.3Z" fill="#2b3335" stroke="#2b3335"></path><path d="M162.3 946.7L174.8 911.7L164.8 900Z" fill="#282f31" stroke="#282f31"></path><path d="M164.8 900L174.8 911.7L180.8 884.3Z" fill="#262d2f" stroke="#262d2f"></path><path d="M449.5 936.7L448.3 900L415.8 900Z" fill="#2b3335" stroke="#2b3335"></path><path d="M478.5 900L532 900L498.5 886.3Z" fill="#2d3538" stroke="#2d3538"></path><path d="M458 932.7L532 900L478.5 900Z" fill="#31393c" stroke="#31393c"></path><path d="M581.3 938.7L536.8 900L532 900Z" fill="#2c3436" stroke="#2c3436"></path><path d="M532 900L536.8 900L511.8 845.7Z" fill="#293133" stroke="#293133"></path><path d="M687.3 45L667.5 74L675 80.7Z" fill="#2f3739" stroke="#2f3739"></path><path d="M687.3 45L675 35.3L667.5 74Z" fill="#2d3538" stroke="#2d3538"></path><path d="M717.3 57.3L687.3 45L675 80.7Z" fill="#2f3739" stroke="#2f3739"></path><path d="M679.3 858L675 821.7L614 813.3Z" fill="#30383b" stroke="#30383b"></path><path d="M663.3 798.3L675 821.7L675 781Z" fill="#2d3538" stroke="#2d3538"></path><path d="M675 781L679.3 858L675 719.3Z" fill="#2c3436" stroke="#2c3436"></path><path d="M318.8 900L297.3 900L162.3 946.7Z" fill="#2a3234" stroke="#2a3234"></path><path d="M80.5 900L117.3 900L94.5 830.7Z" fill="#31393c" stroke="#31393c"></path><path d="M80.5 900L94.5 830.7L61.3 889.7Z" fill="#2c3436" stroke="#2c3436"></path><path d="M162.3 946.7L297.3 900L290.3 900Z" fill="#2c3436" stroke="#2c3436"></path><path d="M581.3 938.7L569.3 900L536.8 900Z" fill="#2d3538" stroke="#2d3538"></path><path d="M536.8 900L569.3 900L511.8 845.7Z" fill="#2b3335" stroke="#2b3335"></path><path d="M604.3 862.7L679.3 858L614 813.3Z" fill="#30383b" stroke="#30383b"></path><path d="M597.5 900L581.3 938.7L629.5 912.3Z" fill="#2a3234" stroke="#2a3234"></path><path d="M679.3 858L717.3 57.3L694.3 382.3Z" fill="#2c3436" stroke="#2c3436"></path><path d="M711.3 117.7L717.3 57.3L675 87.7Z" fill="#2f3739" stroke="#2f3739"></path><path d="M675 0L662.5 0L675 35.3Z" fill="#2c3436" stroke="#2c3436"></path><path d="M-25.2 739.7L0 835.7L0 781.3Z" fill="#30383b" stroke="#30383b"></path><path d="M0 781.3L0 835.7L18.8 795Z" fill="#282f31" stroke="#282f31"></path><path d="M675 35.3L662.5 0L573.3 37.7Z" fill="#2d3538" stroke="#2d3538"></path><path d="M580.8 -10.3L675 0L493.8 -36.7Z" fill="#262d2f" stroke="#262d2f"></path><path d="M493.8 -36.7L675 0L443.3 -47.7Z" fill="#2d3538" stroke="#2d3538"></path><path d="M675 0L675 35.3L687.3 45Z" fill="#30383b" stroke="#30383b"></path><path d="M117.3 900L162.3 946.7L164.8 900Z" fill="#2a3234" stroke="#2a3234"></path><path d="M61.3 889.7L94.5 830.7L55 829.7Z" fill="#293133" stroke="#293133"></path><path d="M418 -45.7L46.5 -29.7L197.5 -14.3Z" fill="#2a3234" stroke="#2a3234"></path><path d="M55.5 0L0 0L44.5 16.7Z" fill="#272e30" stroke="#272e30"></path><path d="M443.3 -47.7L46.5 -29.7L418 -45.7Z" fill="#30383b" stroke="#30383b"></path><path d="M0 883.3L61.3 889.7L55 829.7Z" fill="#2c3436" stroke="#2c3436"></path><path d="M162.3 946.7L107.8 914.7L0 945.7Z" fill="#2f3739" stroke="#2f3739"></path><path d="M80.5 900L107.8 914.7L117.3 900Z" fill="#31393c" stroke="#31393c"></path><path d="M174.8 911.7L162.3 946.7L219.5 900Z" fill="#293133" stroke="#293133"></path><path d="M597.5 900L569.3 900L581.3 938.7Z" fill="#2d3538" stroke="#2d3538"></path><path d="M569.3 900L597.5 900L604.3 862.7Z" fill="#2a3234" stroke="#2a3234"></path><path d="M46.5 -29.7L0 0L55.5 0Z" fill="#31393c" stroke="#31393c"></path><path d="M0 61.3L0 0L-27.2 194.7Z" fill="#282f31" stroke="#282f31"></path><path d="M717.3 57.3L675 0L687.3 45Z" fill="#282f31" stroke="#282f31"></path><path d="M662.5 0L675 0L580.8 -10.3Z" fill="#31393c" stroke="#31393c"></path><path d="M53 900L107.8 914.7L80.5 900Z" fill="#2f3739" stroke="#2f3739"></path><path d="M107.8 914.7L162.3 946.7L117.3 900Z" fill="#2b3335" stroke="#2b3335"></path><path d="M624.5 899.7L679.3 858L604.3 862.7Z" fill="#2d3538" stroke="#2d3538"></path><path d="M675 821.7L679.3 858L675 781Z" fill="#2f3739" stroke="#2f3739"></path><path d="M0 883.3L53 900L61.3 889.7Z" fill="#2f3739" stroke="#2f3739"></path><path d="M61.3 889.7L53 900L80.5 900Z" fill="#2d3538" stroke="#2d3538"></path><path d="M629.5 912.3L624.5 899.7L597.5 900Z" fill="#2c3436" stroke="#2c3436"></path><path d="M597.5 900L624.5 899.7L604.3 862.7Z" fill="#2a3234" stroke="#2a3234"></path><path d="M581.3 938.7L532 900L458 932.7Z" fill="#2c3436" stroke="#2c3436"></path><path d="M624.5 899.7L675 900L679.3 858Z" fill="#2a3234" stroke="#2a3234"></path><path d="M449.5 936.7L581.3 938.7L458 932.7Z" fill="#30383b" stroke="#30383b"></path><path d="M162.3 946.7L581.3 938.7L449.5 936.7Z" fill="#282f31" stroke="#282f31"></path><path d="M-24.2 900L0 883.3L-41.2 899.3Z" fill="#2a3234" stroke="#2a3234"></path><path d="M0 835.7L0 883.3L55 829.7Z" fill="#272e30" stroke="#272e30"></path><path d="M53 900L0 945.7L107.8 914.7Z" fill="#31393c" stroke="#31393c"></path><path d="M-24.2 900L0 900L0 883.3Z" fill="#2c3436" stroke="#2c3436"></path><path d="M0 883.3L0 900L53 900Z" fill="#2f3739" stroke="#2f3739"></path><path d="M675 914.3L675 900L629.5 912.3Z" fill="#272e30" stroke="#272e30"></path><path d="M629.5 912.3L675 900L624.5 899.7Z" fill="#2d3538" stroke="#2d3538"></path><path d="M581.3 938.7L675 914.3L629.5 912.3Z" fill="#282f31" stroke="#282f31"></path><path d="M675 900L675 914.3L679.3 858Z" fill="#262d2f" stroke="#262d2f"></path><path d="M-41.2 899.3L0 883.3L0 835.7Z" fill="#293133" stroke="#293133"></path><path d="M0 900L0 945.7L53 900Z" fill="#2b3335" stroke="#2b3335"></path><path d="M-41.2 899.3L0 835.7L-25.2 739.7Z" fill="#30383b" stroke="#30383b"></path><path d="M-42.2 555.3L-41.2 899.3L-25.2 739.7Z" fill="#31393c" stroke="#31393c"></path><path d="M-24.2 900L0 945.7L0 900Z" fill="#2b3335" stroke="#2b3335"></path><path d="M-41.2 899.3L0 945.7L-24.2 900Z" fill="#282f31" stroke="#282f31"></path></g></svg>